<svg xmlns="http://www.w3.org/2000/svg" width="15.395" height="16" viewBox="0 0 15.395 16">
    <defs>
        <style>
            .cls-1{fill:#d0cfec}
        </style>
    </defs>
    <path id="Icon_metro-attachment" d="M14.426 7.038l-1.117-1.014L7.728 11.1a2.017 2.017 0 0 0 0 3.044 2.538 2.538 0 0 0 3.348 0l6.7-6.089a3.361 3.361 0 0 0 0-5.074 4.229 4.229 0 0 0-5.581 0L5.162 9.373l-.015.013a4.689 4.689 0 0 0 0 7.077 5.9 5.9 0 0 0 7.783 0l.014-.014 4.8-4.364-1.117-1.014-4.8 4.363-.015.013a4.213 4.213 0 0 1-5.551 0 3.348 3.348 0 0 1 0-5.047l.015-.013 7.034-6.393a2.541 2.541 0 0 1 3.349 0 2.02 2.02 0 0 1 0 3.044l-6.7 6.089a.847.847 0 0 1-1.116 0 .673.673 0 0 1 0-1.014l5.581-5.075z" class="cls-1" data-name="Icon metro-attachment" transform="translate(-3.535 -1.928)"/>
</svg>
