<svg xmlns="http://www.w3.org/2000/svg" width="17.789" height="20.754" viewBox="0 0 17.789 20.754">
    <defs>
        <style>
            .cls-1{fill:#fff}
        </style>
    </defs>
    <path id="Icon_metro-file-pdf" d="M19.572 6.6a2.7 2.7 0 0 1 .556.88 2.673 2.673 0 0 1 .232 1.02v13.346a1.107 1.107 0 0 1-1.112 1.112H3.683a1.107 1.107 0 0 1-1.112-1.112V3.315A1.107 1.107 0 0 1 3.683 2.2h10.376a2.674 2.674 0 0 1 1.019.232 2.7 2.7 0 0 1 .88.556zM14.43 3.779v4.354h4.355a1.265 1.265 0 0 0-.255-.475L14.9 4.033a1.265 1.265 0 0 0-.475-.255zm4.447 17.7V9.616h-4.818A1.107 1.107 0 0 1 12.948 8.5V3.686H4.053v17.789h14.824zm-5.953-6.868a8.812 8.812 0 0 0 .973.649 11.492 11.492 0 0 1 1.355-.081q1.7 0 2.05.567a.56.56 0 0 1 .023.6.033.033 0 0 1-.012.023l-.023.023v.008q-.069.44-.822.44a4.777 4.777 0 0 1-1.332-.232A8.445 8.445 0 0 1 13.631 16a20.854 20.854 0 0 0-4.54.961q-1.772 3.034-2.8 3.034a.674.674 0 0 1-.324-.081l-.278-.139q-.012-.012-.069-.058a.479.479 0 0 1-.069-.417 2.515 2.515 0 0 1 .649-1.06 5.6 5.6 0 0 1 1.524-1.12.169.169 0 0 1 .266.069.067.067 0 0 1 .023.046q.6-.984 1.239-2.282a17.677 17.677 0 0 0 1.2-3.034 9.362 9.362 0 0 1-.353-1.847A4.5 4.5 0 0 1 10.18 8.6q.127-.463.486-.463h.255a.488.488 0 0 1 .405.174.925.925 0 0 1 .1.788.251.251 0 0 1-.046.093.3.3 0 0 1 .012.093v.347a15.166 15.166 0 0 1-.162 2.224 5.859 5.859 0 0 0 1.691 2.756zm-6.671 4.76a5.114 5.114 0 0 0 1.587-1.83 6.6 6.6 0 0 0-1.013.973 3.849 3.849 0 0 0-.573.853zm4.61-10.659a3.444 3.444 0 0 0-.023 1.529l.081-.51q0-.035.081-.5a.261.261 0 0 1 .046-.093.033.033 0 0 1-.012-.023.023.023 0 0 0-.006-.017.023.023 0 0 1-.006-.017.667.667 0 0 0-.151-.417.033.033 0 0 1-.012.023v.023zm-1.436 7.656a16.988 16.988 0 0 1 3.289-.938 1.749 1.749 0 0 1-.151-.11 2.074 2.074 0 0 1-.185-.156 6.135 6.135 0 0 1-1.471-2.038 15.477 15.477 0 0 1-.961 2.282q-.347.649-.521.961zm7.482-.185a2.772 2.772 0 0 0-1.621-.278 4.381 4.381 0 0 0 1.436.324 1.124 1.124 0 0 0 .208-.012q0-.012-.023-.035z" class="cls-1" data-name="Icon metro-file-pdf" transform="translate(-2.571 -2.203)"/>
</svg>
