<svg xmlns="http://www.w3.org/2000/svg" width="30" height="30" viewBox="0 0 30 30">
    <defs>
        <style>
            .cls-1{fill:#fff;stroke:#d0cfec;stroke-linecap:round;stroke-dasharray:2 2}.cls-2{fill:#d0cfec}.cls-3{stroke:none}.cls-4{fill:none}
        </style>
    </defs>
    <g id="Group_10944" data-name="Group 10944" transform="translate(-1306 -313)">
        <g id="Rectangle_354" class="cls-1" data-name="Rectangle 354" transform="translate(1306 313)">
            <rect width="30" height="30" class="cls-3" rx="15"/>
            <rect width="29" height="29" x=".5" y=".5" class="cls-4" rx="14.5"/>
        </g>
        <path id="Icon_metro-attachment" d="M13.42 7.029l-1.013-1.013-5.066 5.065a2.149 2.149 0 0 0 3.039 3.039l6.08-6.078a3.581 3.581 0 0 0-5.065-5.065L5.012 9.359 5 9.372a5 5 0 0 0 7.065 7.064l.013-.014 4.357-4.356-1.014-1.013-4.358 4.357-.013.013a3.562 3.562 0 0 1-5.039-5.037l.014-.013 6.382-6.383a2.149 2.149 0 1 1 3.04 3.039l-6.079 6.078a.716.716 0 1 1-1.013-1.013l5.065-5.065z" class="cls-2" data-name="Icon metro-attachment" transform="translate(1310.465 318.072)"/>
    </g>
</svg>
