<svg xmlns="http://www.w3.org/2000/svg" width="37.917" height="37.917" viewBox="0 0 37.917 37.917">
    <defs>
        <style>
            .cls-1{fill:#fff;stroke-linecap:round;stroke-dasharray:3 3}.cls-2,.cls-4{fill:#4e58a9}.cls-3,.cls-4{stroke:none}
        </style>
    </defs>
    <g id="Group_11265" data-name="Group 11265">
        <g id="Path_847" class="cls-1" data-name="Path 847">
            <path d="M17.5 0A17.5 17.5 0 1 1 0 17.5 17.5 17.5 0 0 1 17.5 0z" class="cls-3" transform="rotate(-5 34.928 1.525)"/>
            <path d="M23.216.985a.5.5 0 0 1 .167.028c.95.34 1.861.758 2.727 1.248a.5.5 0 0 1-.494.87 16.46 16.46 0 0 0-2.568-1.175.5.5 0 0 1 .168-.971zm5.048 2.856c.111 0 .223.037.316.113a17.606 17.606 0 0 1 2.149 2.09.5.5 0 1 1-.756.654 16.652 16.652 0 0 0-2.026-1.97.5.5 0 0 1 .317-.887zm3.798 4.384a.5.5 0 0 1 .429.241l.011.02h.001l.005.01.002.001.005.009v.002l.006.008v.001l.005.008.001.002.005.008.002.003.004.007.002.003.004.007.002.004.003.005.003.005a2.823 2.823 0 0 1 .006.009l.004.007a2.468 2.468 0 0 1 .005.009l.003.005.003.004.004.007.002.004.005.008.001.002.003.005.007.011v.002l.006.01h.001l.023.04c.458.785.856 1.608 1.19 2.464a.5.5 0 0 1-.933.362c-.34-.876-.76-1.729-1.247-2.535a.5.5 0 0 1 .427-.758zm2.104 5.404a.5.5 0 0 1 .49.401v.001l.002.01v.002l.005.021.002.011v.001l.004.022.003.012c.14.714.237 1.444.287 2.186V16.31l.002.023.001.011v.012l.001.001v.012l.001.01v.003l.001.01v.01l.001.003v.012l.001.01v.01l.001.006v.01l.001.008v.005a1.975 1.975 0 0 1 .002.026v.01a.73.73 0 0 1 0 .003l.001.01v.003l.002.033c.009.153.015.306.019.46a.5.5 0 0 1-1 .025 16.604 16.604 0 0 0-.318-2.807.5.5 0 0 1 .491-.599zm.161 5.8a.5.5 0 0 1 .496.57 17.39 17.39 0 0 1-.678 2.92.5.5 0 1 1-.951-.31c.29-.893.505-1.819.639-2.75a.5.5 0 0 1 .494-.43zm-1.793 5.514a.5.5 0 0 1 .442.733c-.02.04-.042.08-.063.119a9.353 9.353 0 0 1-.006.011v.001l-.006.01-.001.002a15.48 15.48 0 0 1-.016.029l-.005.01-.001.001-.005.01-.001.002a13.887 13.887 0 0 1-.01.018l-.006.01v.002l-.006.009v.002l-.007.01-.009.017-.001.002-.005.01-.001.001-.006.01v.001l-.01.017v.002l-.006.01v.001l-.006.01v.001a15.383 15.383 0 0 1-.016.028l-.002.002-.005.009v.002a12.892 12.892 0 0 1-.016.03c-.003.002-.005.005-.006.009l-.001.001-.006.01a1.261 1.261 0 0 1-.016.029l-.001.002-.006.01a13.62 13.62 0 0 1-.006.01v.002a23.735 23.735 0 0 1-.017.028v.001a7.647 7.647 0 0 1-.013.021v.001l-.01.017v.002l-.006.009-.001.001-.006.01v.001a9.978 9.978 0 0 1-.01.017l-.007.011v.001l-.006.01v.001a17.523 17.523 0 0 1-1.222 1.828l-.007.01a1.048 1.048 0 0 1-.008.01l-.001.001-.005.006-.003.004-.003.004-.003.004-.005.006-.002.003a6.92 6.92 0 0 1-.005.007l-.003.003c0 .002-.002.003-.003.004l-.004.006-.003.004-.005.006-.003.004-.003.004-.002.003a.5.5 0 1 1-.791-.612 16.564 16.564 0 0 0 1.53-2.375.5.5 0 0 1 .443-.266zm-3.548 4.59a.499.499 0 0 1 .34.867 17.41 17.41 0 0 1-.775.67l-.047.037-.01.009-.025.02a12.39 12.39 0 0 1-.01.008h-.001l-.01.009-.025.02-.01.009a15.305 15.305 0 0 1-.027.02l-.01.008-.01.008a18.565 18.565 0 0 1-.036.029 18.515 18.515 0 0 1-.026.02l-.01.008a.498.498 0 0 1-2.033.805.5.5 0 0 1 .149-.69 16.618 16.618 0 0 0 2.238-1.726.498.498 0 0 1 .338-.131zm-4.88 3.135a.5.5 0 0 1 .17.972h-.003l-.009.004-.003.002-.008.003-.003.002c-.002 0-.003 0-.005.002l-.005.001c-.002.002-.004.002-.007.003l-.004.002-.007.003-.004.002-.005.002-.007.003-.004.001-.006.003a16.292 16.292 0 0 1-.021.009l-.004.001-.008.004-.004.001a5.551 5.551 0 0 1-.007.003l-.004.002-.006.002-.004.002-.007.003-.003.001-.008.003-.003.001-.009.004h-.002l-.008.004h-.002l-.009.004-.002.002a8.157 8.157 0 0 1-.009.003l-.002.001-.01.004a7.393 7.393 0 0 1-.009.004h-.002l-.009.004a.668.668 0 0 1-.013.005l-.01.004-.01.004-.01.005h-.002l-.01.004-.01.004h-.001l-.01.005-.01.004h-.002l-.01.004-.033.013-.01.004-.033.013-.011.005-.032.012-.044.017-.043.017-.044.016a16.499 16.499 0 0 1-.076.029l-.011.004-.033.012-.011.004-.033.012-.01.004h-.001l-.033.012a8.503 8.503 0 0 1-.01.004h-.001l-.022.008-.01.004h-.001l-.01.004a.392.392 0 0 1-.022.008h-.001a7.869 7.869 0 0 1-.01.004H23.4l-.01.004h-.001l-.021.008h-.001l-.01.003-.002.001-.01.003V34l-.01.004a10.779 10.779 0 0 1-.012.004l-.01.003h-.002l-.01.004H23.3l-.01.004-.01.003-.002.001-.009.003-.002.001-.01.003-.002.001-.008.003h-.002l-.008.004a3.888 3.888 0 0 1-.012.004h-.002l-.01.004h-.001l-.009.003h-.002l-.009.004h-.002l-.009.004h-.003l-.008.004h-.003c-.003.002-.005.003-.008.003l-.002.001-.009.003-.003.001-.008.003-.003.001-.009.003h-.002l-.008.004h-.002l-.009.003-.003.001-.008.003-.004.001-.007.003-.005.001-.005.002-.005.002-.007.002-.004.001-.008.003-.004.001-.006.002-.005.002-.006.002-.004.001a6.054 6.054 0 0 1-.011.004c-.003 0-.005.002-.008.003l-.004.001-.005.002-.007.002-.005.002-.006.001-.005.002-.005.002-.007.002-.005.002-.005.001-.007.003-.004.001-.005.002-.007.002-.005.001-.006.003-.006.001-.004.002a33.31 33.31 0 0 1-.019.006l-.005.001-.005.002-.006.002a21.445 21.445 0 0 1-.033.01l-.005.002-.005.002-.007.002-.004.001a5.393 5.393 0 0 1-.012.004l-.006.002-.006.002c-.002 0-.003 0-.005.002l-.005.001-.007.002-.004.002-.008.002-.004.001-.005.002-.007.002-.005.002-.004.001-.008.002-.004.002-.008.002-.003.001-.007.002-.006.002-.005.002a1.33 1.33 0 0 1-.012.004h-.003a7.883 7.883 0 0 1-.009.003l-.003.001-.018.006h-.003c-.003.002-.006.003-.01.003l-.002.001-.009.003-.003.001-.006.002-.006.002-.006.001-.004.002a6.402 6.402 0 0 1-.011.003l-.01.003h-.002l-.006.002-.002.001a8.309 8.309 0 0 1-.01.003l-.003.001a9.956 9.956 0 0 0-.012.004l-.01.003a.446.446 0 0 1-.02.006h-.003l-.01.003-.002.001-.009.003h-.003l-.006.002-.003.001-.009.003-.003.001-.01.003h-.002l-.01.003-.003.001-.005.002h-.003l-.01.003-.002.001-.01.003h-.003c-.002.002-.006.003-.008.003l-.004.001-.005.002-.004.001c-.003 0-.006.002-.008.003h-.004l-.008.003h-.004a8.04 8.04 0 0 1-.009.004h-.003l-.005.002-.005.001-.007.002-.004.002-.008.002-.004.001-.005.002c-.003 0-.005 0-.008.002h-.004c-.002.002-.005.002-.007.003l-.005.001-.006.002-.006.002-.005.001-.005.001-.007.002-.005.002-.006.002-.005.001-.006.002-.005.001-.007.002-.004.001-.007.002-.005.001-.007.002-.005.002-.005.001-.005.002c-.003 0-.005 0-.007.002h-.004l-.008.003h-.004l-.008.003-.003.001-.007.002h-.003l-.009.003-.003.001-.009.002-.003.001-.009.003h-.002l-.008.003h-.003l-.009.003h-.003l-.009.003h-.002l-.01.003-.01.003h-.002l-.01.003h-.002a7.673 7.673 0 0 1-.022.006c-.003.002-.007.002-.01.003h-.001l-.01.003H22l-.01.004c-.18.047-.36.091-.54.133a.501.501 0 0 1-.6-.375.5.5 0 0 1 .375-.6c.917-.21 1.82-.503 2.687-.87a.498.498 0 0 1 .194-.039zm-8.562 1.22c.019 0 .038.002.058.004a16.757 16.757 0 0 0 2.854.081.5.5 0 0 1 .027 1c-.198.01-.397.018-.597.023h-.015-.054-.001l-.007.001H17.8a3.12 3.12 0 0 1-.008 0H17.78h-.008H17.762l-.023.001h-.007-.008-.007-.007a.65.65 0 0 0-.003 0h-.005-.015-.016-.001l-.008.001h-.015-.01a1.398 1.398 0 0 1-.008 0h-.004-.015H17.587h-.028a1.572 1.572 0 0 0-.007 0h-.027-.008-.008-.017-.007-.064-.008-.015-.008-.008H17.373h-.016-.023-.016-.017-.008a.29.29 0 0 0-.007 0h-.008-.016-.001l-.024-.001h-.007-.008-.008-.016l-.032-.001h-.024a17.687 17.687 0 0 1-1.274-.072l-.007-.001h-.008-.001l-.006-.001h-.002l-.006-.001h-.007l-.002-.001h-.008l-.006-.001h-.005l-.003-.001h-.005-.002l-.005-.001h-.003l-.005-.001h-.007-.001l-.006-.001-.287-.03a.5.5 0 0 1 .058-.997zm-5.562-1.637c.075 0 .15.017.221.052a16.43 16.43 0 0 0 2.63 1.028.5.5 0 1 1-.282.96 17.38 17.38 0 0 1-2.79-1.091.5.5 0 0 1 .221-.949zm-4.687-3.417c.13 0 .26.05.359.151.655.676 1.373 1.3 2.133 1.854a.5.5 0 0 1-.588.81 17.669 17.669 0 0 1-1.197-.956l-.008-.008h-.001l-.009-.008h-.001a16.885 16.885 0 0 1-.014-.013l-.003-.002-.007-.006-.002-.002-.007-.007-.002-.002-.007-.006-.003-.002a4.308 4.308 0 0 1-.004-.004l-.005-.004-.004-.004-.003-.003-.006-.005-.003-.003-.006-.005-.004-.003-.004-.003a6.208 6.208 0 0 1-.005-.005l-.004-.003-.004-.004-.005-.005-.004-.003a10.44 10.44 0 0 1-.009-.008l-.004-.004-.005-.004-.003-.003-.006-.006-.003-.002a17.17 17.17 0 0 1-.006-.006l-.003-.002-.005-.005-.004-.003-.005-.004-.003-.003a17.926 17.926 0 0 1-.006-.006l-.003-.002-.006-.006-.003-.002a16.999 16.999 0 0 1-.006-.006l-.002-.002-.006-.005-.002-.002a6.182 6.182 0 0 1-.007-.006l-.002-.002-.007-.006-.002-.002-.007-.006-.002-.002-.007-.006-.001-.002-.007-.005c0-.001 0-.002-.002-.002a10.44 10.44 0 0 1-.007-.007l-.001-.001-.007-.007-.002-.002-.007-.006-.002-.001-.007-.006a.788.788 0 0 0-.01-.01l-.007-.006-.002-.002-.007-.006-.002-.002-.007-.007h-.001l-.007-.007a.64.64 0 0 1-.009-.008l-.001-.001a12.491 12.491 0 0 1-.007-.007l-.002-.001a22.994 22.994 0 0 1-.007-.007l-.002-.002-.007-.006v-.001l-.008-.007-.002-.001-.007-.007-.001-.001-.007-.007a1.94 1.94 0 0 1-.01-.008v-.001a12.132 12.132 0 0 1-.008-.007l-.008-.008H5.58a11.8 11.8 0 0 1-.008-.007l-.001-.002-.007-.007-.002-.001-.007-.007-.001-.001a21.3 21.3 0 0 1-.007-.006l-.002-.002-.007-.006-.001-.002-.007-.007-.002-.001-.007-.007a.937.937 0 0 0-.009-.008l-.008-.007-.001-.002a11.61 11.61 0 0 1-.007-.006l-.002-.002a10.756 10.756 0 0 1-.007-.007l-.002-.002a22.357 22.357 0 0 1-.007-.006l-.002-.002-.005-.005-.003-.002-.006-.006a1.688 1.688 0 0 1-.009-.009l-.002-.002-.007-.006-.001-.002-.008-.006v-.002a10.643 10.643 0 0 1-.016-.014l-.002-.002-.006-.006-.002-.002-.007-.006-.002-.002-.006-.006-.002-.002a19.33 19.33 0 0 1-.006-.006l-.002-.002-.007-.006-.002-.003-.007-.006-.002-.002-.006-.006-.003-.002-.005-.005a4.293 4.293 0 0 0-.008-.008l-.003-.003-.006-.005-.003-.004-.005-.005-.004-.003-.004-.004a9.44 9.44 0 0 1-.008-.008l-.005-.005-.004-.004-.003-.003-.006-.005a5.997 5.997 0 0 1-.003-.004l-.004-.004-.005-.004-.004-.004a13.473 13.473 0 0 1-.005-.005l-.003-.003a6.11 6.11 0 0 1-.006-.006l-.003-.002-.004-.004L5.253 30l-.006-.006-.002-.002-.007-.007-.002-.002-.007-.007-.001-.002a.5.5 0 0 1 .067-1.142zm-3.272-4.79a.5.5 0 0 1 .455.292c.39.855.857 1.683 1.388 2.46a.5.5 0 0 1-.825.566 17.5 17.5 0 0 1-.833-1.347 12.565 12.565 0 0 1-.023-.04l-.006-.012-.006-.011a10.95 10.95 0 0 1-.016-.03c-.003-.003-.005-.007-.006-.01l-.001-.002-.005-.009a.506.506 0 0 1-.005-.009l-.005-.01-.002-.002-.004-.008-.002-.003-.004-.008-.002-.003a9.011 9.011 0 0 1-.004-.008l-.002-.003-.002-.005-.002-.004a5.256 5.256 0 0 1-.004-.007l-.002-.003a25.713 25.713 0 0 1-.006-.011l-.004-.007-.002-.004-.003-.005-.003-.006-.003-.005-.001-.003a5.638 5.638 0 0 1-.005-.008l-.001-.003-.004-.008-.002-.003-.003-.006a3.01 3.01 0 0 1-.003-.005c0-.002-.002-.003-.003-.005l-.002-.004-.003-.007a1.867 1.867 0 0 1-.006-.01l-.002-.004-.003-.006-.003-.005c0-.002-.002-.003-.003-.005l-.003-.006-.002-.005-.003-.004-.003-.007-.002-.004-.003-.005a3.762 3.762 0 0 0-.003-.006l-.002-.004-.004-.007-.002-.004-.003-.006-.003-.004-.002-.006-.003-.005-.003-.005-.002-.004-.004-.007-.002-.004-.004-.007-.001-.004-.003-.005-.003-.005a3.508 3.508 0 0 1-.003-.006l-.002-.003c0-.003-.002-.005-.003-.008a5.36 5.36 0 0 1-.002-.003l-.004-.008a.863.863 0 0 0-.002-.003l-.003-.007-.002-.003-.004-.007-.001-.003-.004-.008-.002-.003-.004-.008-.001-.002a16.32 16.32 0 0 1-.004-.008l-.002-.003a13.825 13.825 0 0 1-.004-.007v-.002a7.173 7.173 0 0 1-.006-.01l-.004-.01-.002-.002a7.14 7.14 0 0 1-.004-.008v-.002l-.005-.009-.001-.001-.004-.009-.001-.001a5.605 5.605 0 0 1-.005-.01v-.001l-.005-.009-.001-.002-.005-.009-.005-.01v-.001l-.005-.01a13.519 13.519 0 0 0-.006-.012l-.005-.009a19.34 19.34 0 0 1-.01-.02v-.001l-.006-.01v-.001l-.005-.01-.016-.031a18.604 18.604 0 0 1-.02-.042H1.81a17.412 17.412 0 0 1-.243-.51.5.5 0 0 1 .455-.708zM.56 18.433a.5.5 0 0 1 .498.458c.078.94.238 1.877.475 2.785a.5.5 0 0 1-.968.253 17.395 17.395 0 0 1-.18-.762l-.003-.013-.004-.02v-.002l-.003-.011v-.001l-.003-.013a15.38 15.38 0 0 1-.004-.02v-.002l-.002-.01-.001-.002-.004-.019v-.003l-.002-.01-.001-.002-.002-.01v-.003l-.002-.006v-.003l-.002-.009-.001-.003-.002-.01v-.003l-.002-.005-.001-.007-.001-.006v-.004l-.003-.008v-.004L.34 20.95v-.004l-.002-.005a1.834 1.834 0 0 1-.003-.017l-.002-.007v-.005l-.002-.005L.33 20.9l-.001-.006v-.004l-.002-.008-.001-.004-.001-.006-.002-.006v-.006l-.001-.004-.002-.008a1.012 1.012 0 0 1-.002-.012l-.001-.004-.001-.005-.002-.008v-.004l-.002-.006v-.007l-.002-.004v-.005l-.002-.008-.001-.005-.001-.005-.001-.007-.001-.005a3.152 3.152 0 0 1-.003-.017l-.002-.007v-.005l-.002-.005v-.007l-.002-.005v-.005l-.002-.008-.001-.004-.001-.006-.001-.006-.001-.006-.001-.004-.002-.008v-.004l-.002-.008v-.004l-.002-.006v-.005l-.002-.007v-.004l-.002-.008a1.512 1.512 0 0 0-.002-.011v-.005l-.002-.007v-.003l-.002-.009v-.003l-.002-.009-.001-.003-.001-.007-.001-.005-.001-.007v-.004l-.002-.008-.001-.004-.001-.007-.001-.004-.001-.007v-.004l-.002-.008-.001-.004-.001-.008-.001-.004-.001-.007-.001-.005-.001-.006v-.005l-.002-.008-.001-.004-.001-.006-.001-.006-.001-.006v-.004l-.002-.008v-.004l-.002-.008v-.004l-.002-.007v-.004l-.002-.008v-.003l-.002-.009v-.003l-.002-.008v-.004a5.846 5.846 0 0 0-.002-.01l-.002-.01v-.003l-.001-.008-.001-.004-.001-.007v-.003l-.002-.009v-.003L.222 20.3a1.19 1.19 0 0 1-.002-.01v-.005l-.002-.007v-.004l-.002-.008v-.004l-.002-.008v-.004l-.001-.007v-.004l-.002-.008v-.004L.21 20.22v-.004l-.002-.007v-.004l-.001-.007-.001-.004a6.329 6.329 0 0 0-.002-.012l-.001-.008v-.004L.2 20.162v-.004l-.002-.008v-.004a6.07 6.07 0 0 1-.002-.012l-.001-.006v-.006l-.002-.006v-.005l-.002-.007v-.005l-.001-.006-.001-.006-.001-.006v-.004l-.002-.008a1.83 1.83 0 0 1-.002-.013v-.004l-.001-.005-.001-.007v-.006L.18 20.03v-.008l-.001-.005-.001-.005-.001-.007V20l-.002-.007v-.005l-.001-.006-.001-.005-.001-.007v-.004l-.002-.008v-.005l-.001-.005-.001-.007v-.006l-.002-.004v-.009l-.001-.003-.002-.012V19.9l-.001-.003-.001-.01v-.003l-.002-.01v-.002l-.001-.006a.24.24 0 0 1-.002-.013v-.003l-.002-.01v-.003l-.003-.02-.002-.012v-.002L.15 19.79a16.719 16.719 0 0 1-.005-.033v-.001a17.56 17.56 0 0 1-.083-.784.5.5 0 0 1 .5-.54zm.5-5.78a.501.501 0 0 1 .484.627 16.5 16.5 0 0 0-.482 2.783.5.5 0 0 1-.997-.086c.01-.11.02-.22.032-.33l.002-.024.002-.011v-.001l.001-.012.001-.011.001-.011v-.002l.002-.01v-.002l.001-.01v-.001l.001-.01v-.002l.002-.01v-.003l.001-.01v-.001l.001-.009v-.003l.002-.01v-.002l.001-.01a.964.964 0 0 1 .002-.014v-.008l.001-.003.001-.009v-.004l.001-.008v-.004l.002-.006v-.005l.001-.007v-.005l.002-.008v-.005-.005l.002-.007v-.005-.005l.002-.007v-.006-.004l.002-.009v-.003l.002-.01v-.003-.006l.001-.003.001-.01v-.003l.002-.01v-.002l.003-.02v-.001l.001-.012v-.002l.005-.033a17.42 17.42 0 0 1 .432-2.207.5.5 0 0 1 .482-.37zm2.42-5.27a.5.5 0 0 1 .412.783 16.523 16.523 0 0 0-1.395 2.456.5.5 0 0 1-.91-.416c.42-.914.917-1.787 1.482-2.608a.5.5 0 0 1 .412-.216zm4.05-4.154a.5.5 0 0 1 .294.904 16.64 16.64 0 0 0-2.138 1.849.498.498 0 0 1-.707.008.5.5 0 0 1-.01-.705 17.584 17.584 0 0 1 1.258-1.171l.015-.013.01-.008.001-.001.008-.007a.49.49 0 0 0 .01-.008l.002-.001.004-.004.002-.002.007-.006c.002 0 .003-.002.004-.003a7.512 7.512 0 0 1 .01-.008l.005-.004.004-.003.004-.004.005-.004.004-.003.006-.005.003-.003.005-.004.004-.004c.002 0 .003-.002.005-.004l.003-.002a8.907 8.907 0 0 1 .01-.008L6.363 4l.002-.002.008-.006.001-.002.007-.005.001-.001A23.227 23.227 0 0 1 6.4 3.97l.002-.002.008-.006.001-.001.008-.007.01-.007.008-.007v-.001l.01-.007.009-.008c.254-.207.515-.407.78-.6a.498.498 0 0 1 .294-.095zM12.738.676a.5.5 0 0 1 .14.98 16.43 16.43 0 0 0-2.634 1.02.498.498 0 0 1-.669-.228.5.5 0 0 1 .229-.67 17.4 17.4 0 0 1 1.4-.611l.011-.005.022-.008.01-.004h.002l.01-.004.022-.009.01-.004h.002l.01-.004h.001l.01-.004.01-.004h.001l.01-.004h.002l.009-.004.002-.001.01-.004.01-.003.001-.001.01-.004h.002l.009-.004h.002l.01-.004h.001l.008-.004h.003a7.475 7.475 0 0 1 .02-.008l.003-.001.008-.003.003-.001.007-.003h.003l.008-.004.003-.001.008-.003.004-.001.008-.003.003-.002.006-.002c.002 0 .003 0 .005-.002l.007-.002.004-.001.007-.003.005-.002.005-.002.006-.002.005-.002.007-.002.004-.002.005-.001.007-.003.005-.002.004-.001.007-.003.005-.001.008-.003.003-.002.007-.002.005-.002.005-.002a.89.89 0 0 0 .003 0l.01-.004.003-.001.008-.003.003-.001A10.86 10.86 0 0 1 11.653 1l.006-.002.002-.001.01-.004h.002l.01-.004h.002a20.652 20.652 0 0 1 .075-.027l.013-.004c.272-.095.548-.182.826-.263a.5.5 0 0 1 .139-.02zM17.5 0H17.68a7.44 7.44 0 0 1 .023.001H17.75a.608.608 0 0 1 .012 0h.002l.01.001H17.82a.78.78 0 0 0 .012.001H17.871l.008.001h.015a7.846 7.846 0 0 1 .012 0h.011l.01.001h.025l.01.001h.035L18 .008H18.025l.008.001h.028l.007.001h.025l.003.001h.023l.009.001h.004a3.7 3.7 0 0 1 .012 0h.007l.004.001h.019l.005.001h.024l.006.001h.016l.008.001H18.251l.005.001H18.274l.006.001h.019l.005.001h.012l.006.001a1.58 1.58 0 0 1 .012 0h.005a2.358 2.358 0 0 1 .013.001H18.36l.008.001h.01l.008.001h.005a1.713 1.713 0 0 1 .013.001h.017l.005.001h.014l.003.001H18.457l.006.001h.016l.01.002h.021a.773.773 0 0 1 .015.002h.023l.012.002h.021l.002.001H18.596l.035.003c.629.04 1.247.113 1.856.218a.5.5 0 0 1-.17.985 16.763 16.763 0 0 0-4.67-.136.5.5 0 0 1-.113-.994c.123-.014.246-.026.37-.037h.007l.006-.001h.002l.005-.001H15.933c.008-.002.017-.002.025-.003H15.967l.004-.001h.007l.004-.001h.007l.003-.001H16l.004-.001h.01l.007-.001.015-.002h.015l.002-.001h.007l.007-.001h.007l.008-.001c.326-.026.653-.044.983-.052l.062-.001h.039a16.039 16.039 0 0 1 .04-.002h.023a2.665 2.665 0 0 0 .008 0h.07L17.312 0h.05a1.51 1.51 0 0 1 .008 0H17.459L17.463 0h.037z" class="cls-4" transform="rotate(-5 34.928 1.525)"/>
        </g>
        <path id="Icon_ionic-ios-arrow-back" d="M13.059 11.44l3.971-3.968a.75.75 0 0 0-1.062-1.059l-4.5 4.5a.749.749 0 0 0-.022 1.034l4.518 4.527a.75.75 0 1 0 1.062-1.059z" class="cls-2" data-name="Icon ionic-ios-arrow-back" transform="translate(4.209 7.265)"/>
    </g>
</svg>
