<svg xmlns="http://www.w3.org/2000/svg" width="26" height="26" viewBox="0 0 26 26">
    <defs>
        <style>
            .cls-1{fill:rgba(255,255,255,.2);stroke:rgba(78,88,169,.3)}.cls-2{fill:rgba(78,88,169,.5)}.cls-3{stroke:none}.cls-4{fill:none}
        </style>
    </defs>
    <g id="Group_11430" data-name="Group 11430" transform="translate(-6113 6705)">
        <g id="Group_11375" data-name="Group 11375" transform="translate(6113 -6705)">
            <g id="Rectangle_687" class="cls-1" data-name="Rectangle 687">
                <rect width="26" height="26" class="cls-3" rx="13"/>
                <rect width="25" height="25" x=".5" y=".5" class="cls-4" rx="12.5"/>
            </g>
        </g>
        <path id="Icon_awesome-ellipsis-h" d="M9.171 14.874a1.937 1.937 0 1 1-1.937-1.937 1.936 1.936 0 0 1 1.937 1.937zm2.8-1.937a1.937 1.937 0 1 0 1.937 1.937 1.936 1.936 0 0 0-1.939-1.936zm-9.469 0a1.937 1.937 0 1 0 1.937 1.937A1.936 1.936 0 0 0 2.5 12.938z" class="cls-2" data-name="Icon awesome-ellipsis-h" transform="translate(6118.703 -6706.58)"/>
    </g>
</svg>
