<svg xmlns="http://www.w3.org/2000/svg" width="24" height="24" viewBox="0 0 24 24">
    <defs>
        <style>
            .cls-1,.cls-3{fill:#fff}.cls-1,.cls-2,.cls-3{stroke:#d0cfec}.cls-1{stroke-width:2px}.cls-2,.cls-5{fill:none}.cls-2{stroke-linecap:round}.cls-4{stroke:none}
        </style>
    </defs>
    <g id="Group_11274" data-name="Group 11274" transform="translate(-1586 -181)">
        <g id="Rectangle_630" class="cls-1" data-name="Rectangle 630" transform="translate(1586 181)">
            <rect width="24" height="24" class="cls-4" rx="5"/>
            <rect width="22" height="22" x="1" y="1" class="cls-5" rx="4"/>
        </g>
        <path id="Line_14" d="M0 0h13.6" class="cls-2" data-name="Line 14" transform="translate(1587.6 187.8)"/>
        <path id="Line_15" d="M0 0h2" class="cls-2" data-name="Line 15" transform="translate(1604 187.8)"/>
        <path id="Line_16" d="M0 0h2" class="cls-2" data-name="Line 16" transform="translate(1589.6 191.8)"/>
        <path id="Line_17" d="M0 0h4.098" class="cls-2" data-name="Line 17" transform="translate(1589.6 195.8)"/>
        <path id="Line_18" d="M0 0h1.9" class="cls-2" data-name="Line 18" transform="translate(1589.6 199.8)"/>
        <g id="Rectangle_631" class="cls-3" data-name="Rectangle 631" transform="translate(1593.2 190.2)">
            <rect width="6.4" height="3.2" class="cls-4" rx="1.6"/>
            <rect width="5.4" height="2.2" x=".5" y=".5" class="cls-5" rx="1.1"/>
        </g>
        <path id="Line_19" d="M0 0h7.2" class="cls-2" data-name="Line 19" transform="translate(1599.2 191.8)"/>
        <g id="Rectangle_632" class="cls-3" data-name="Rectangle 632" transform="translate(1594.8 194.2)">
            <rect width="10.4" height="3.2" class="cls-4" rx="1.6"/>
            <rect width="9.4" height="2.2" x=".5" y=".5" class="cls-5" rx="1.1"/>
        </g>
        <path id="Line_20" d="M0 0h1.7" class="cls-2" data-name="Line 20" transform="translate(1604.7 195.8)"/>
        <g id="Rectangle_633" class="cls-3" data-name="Rectangle 633" transform="translate(1592.2 198.2)">
            <rect width="9.4" height="3.2" class="cls-4" rx="1.6"/>
            <rect width="8.4" height="2.2" x=".5" y=".5" class="cls-5" rx="1.1"/>
        </g>
        <path id="Line_21" d="M0 0h4.9" class="cls-2" data-name="Line 21" transform="translate(1601.5 199.8)"/>
    </g>
</svg>
