<svg xmlns="http://www.w3.org/2000/svg" width="32" height="32" viewBox="0 0 32 32">
    <defs>
        <style>
            .cls-1{fill:none;stroke:#d0cfec;stroke-linecap:round;stroke-linejoin:round;stroke-width:2px}
        </style>
    </defs>
    <g id="Group_11263" data-name="Group 11263" transform="translate(1 1)">
        <path id="Path_66" d="M22.5 18a4.5 4.5 0 1 1-4.5-4.5 4.5 4.5 0 0 1 4.5 4.5z" class="cls-1" data-name="Path 66" transform="translate(-3 -3)"/>
        <path id="Path_67" d="M26.591 20.591a2.25 2.25 0 0 0 .45 2.482l.082.082a2.729 2.729 0 1 1-3.859 3.859l-.082-.082a2.268 2.268 0 0 0-3.845 1.609v.232a2.727 2.727 0 1 1-5.455 0v-.123a2.25 2.25 0 0 0-1.473-2.059 2.25 2.25 0 0 0-2.482.45l-.082.082a2.729 2.729 0 1 1-3.859-3.859l.082-.082a2.268 2.268 0 0 0-1.609-3.845h-.232a2.727 2.727 0 1 1 0-5.455h.123a2.25 2.25 0 0 0 2.059-1.473 2.25 2.25 0 0 0-.45-2.482l-.082-.082a2.729 2.729 0 1 1 3.859-3.859l.082.082a2.25 2.25 0 0 0 2.482.45h.109a2.25 2.25 0 0 0 1.364-2.059v-.232a2.727 2.727 0 0 1 5.455 0v.123a2.268 2.268 0 0 0 3.845 1.609l.082-.082a2.729 2.729 0 1 1 3.859 3.859l-.082.082a2.25 2.25 0 0 0-.45 2.482v.109a2.25 2.25 0 0 0 2.059 1.364h.232a2.727 2.727 0 0 1 0 5.455h-.123a2.25 2.25 0 0 0-2.059 1.364z" class="cls-1" data-name="Path 67" transform="translate(-1.5 -1.5)"/>
    </g>
</svg>
