<svg xmlns="http://www.w3.org/2000/svg" width="25" height="19.921" viewBox="0 0 25 19.921">
    <defs>
        <style>
            .cls-1{fill:#d0cfec}
        </style>
    </defs>
    <path id="Icon_metro-tags" d="M27.1 7.716h-7.618a2.65 2.65 0 0 0-1.626.673L8.41 17.836a.955.955 0 0 0 0 1.347l8.177 8.177a.955.955 0 0 0 1.347 0l9.446-9.446a2.65 2.65 0 0 0 .673-1.626v-7.62a.955.955 0 0 0-.953-.952zm-4.762 7.619a1.9 1.9 0 1 1 1.9-1.9 1.9 1.9 0 0 1-1.899 1.9zM5.2 18.509L15.99 7.716H14.4a2.65 2.65 0 0 0-1.626.673l-9.443 9.447a.955.955 0 0 0 0 1.347l8.177 8.177a.955.955 0 0 0 1.347 0l.6-.6L5.2 18.509z" class="cls-1" data-name="Icon metro-tags" transform="translate(-3.053 -7.716)"/>
</svg>
