<svg xmlns="http://www.w3.org/2000/svg" width="19.333" height="14.5" viewBox="0 0 19.333 14.5">
    <defs>
        <style>
            .cls-1{fill:#d0cfec}
        </style>
    </defs>
    <path id="Icon_material-control-point-duplicate" d="M12.889 8.528h-1.611v2.417H8.861v1.611h2.417v2.417h1.611v-2.417h2.417v-1.612h-2.417zM1.611 11.75a5.631 5.631 0 0 1 3.23-5.091v-1.74a7.24 7.24 0 0 0 0 13.662v-1.74a5.631 5.631 0 0 1-3.23-5.091zM12.083 4.5a7.25 7.25 0 1 0 7.25 7.25 7.261 7.261 0 0 0-7.25-7.25zm0 12.889a5.639 5.639 0 1 1 5.639-5.639 5.645 5.645 0 0 1-5.639 5.639z" class="cls-1" data-name="Icon material-control-point-duplicate" transform="translate(0 -4.5)"/>
</svg>
