<svg xmlns="http://www.w3.org/2000/svg" width="14.91" height="14.91" viewBox="0 0 14.91 14.91">
    <defs>
        <style>
            .cls-1{fill:#d0cfec}
        </style>
    </defs>
    <path id="Icon_material-leak-remove" d="M10.3 4.5H8.642a3.8 3.8 0 0 1-.1.878L9.859 6.7a5.673 5.673 0 0 0 .441-2.2zM4.5 5.552L6.853 7.9a4.109 4.109 0 0 1-2.353.742V10.3a5.775 5.775 0 0 0 3.537-1.211l1.185 1.185A7.448 7.448 0 0 1 4.5 11.955v1.657a9.072 9.072 0 0 0 5.89-2.17l2.071 2.071a9.149 9.149 0 0 0-2.162 5.9h1.657a7.408 7.408 0 0 1 1.681-4.713l1.185 1.185a5.734 5.734 0 0 0-1.209 3.529h1.657a4.109 4.109 0 0 1 .737-2.353l2.353 2.353 1.052-1.052L5.552 4.5zM13.612 4.5h-1.657a7.438 7.438 0 0 1-.845 3.446l1.21 1.209A9.051 9.051 0 0 0 13.612 4.5zm4.92 10.868a3.8 3.8 0 0 1 .878-.1v-1.656a5.9 5.9 0 0 0-2.2.431zm-3.777-3.777l1.209 1.209a7.438 7.438 0 0 1 3.446-.845V10.3a9.051 9.051 0 0 0-4.655 1.291z" class="cls-1" data-name="Icon material-leak-remove" transform="translate(-4.5 -4.5)"/>
</svg>
