<svg xmlns="http://www.w3.org/2000/svg" width="20.072" height="22.906" viewBox="0 0 20.072 22.906">
    <defs>
        <style>
            .cls-1{fill:#4e58a9}
        </style>
    </defs>
    <path id="Icon_open-timer" d="M5.727 0v2.863H8.59v.086a10.029 10.029 0 1 0 11.453 9.936 9.726 9.726 0 0 0-.716-3.579l-2.606 1.088a6.889 6.889 0 0 1 .458 2.52 7.158 7.158 0 1 1-7.158-7.158 7 7 0 0 1 2.52.458l.974-2.691a11.989 11.989 0 0 0-2.062-.458v-.173h2.863V.029H5.727zm14.316 3.321s-10.451 8.046-11 8.59a1.4 1.4 0 0 0 0 1.976 1.351 1.351 0 0 0 1.976 0c.573-.573 9.048-10.566 9.048-10.566z" class="cls-1" data-name="Icon open-timer"/>
</svg>
