<svg xmlns="http://www.w3.org/2000/svg" width="20.25" height="18" viewBox="0 0 20.25 18">
    <defs>
        <style>
            .cls-1{fill:#d0cfec}
        </style>
    </defs>
    <path id="Icon_awesome-mail-bulk" d="M5.625 15.75a4.264 4.264 0 0 1-2.25-1.125C1.125 13.05.45 12.488 0 12.15v4.725A1.125 1.125 0 0 0 1.125 18h9a1.125 1.125 0 0 0 1.125-1.125V12.15c-.45.337-1.125.9-3.375 2.475a4.264 4.264 0 0 1-2.25 1.125zm4.5-6.75h-9A1.125 1.125 0 0 0 0 10.125v.563c.9.675.788.675 4.05 3.038.338.225 1.012.9 1.575.9s1.238-.675 1.575-.788c3.262-2.363 3.15-2.363 4.05-3.038v-.675A1.125 1.125 0 0 0 10.125 9zm9-3.375H7.875A1.125 1.125 0 0 0 6.75 6.75v1.125h3.375a2.253 2.253 0 0 1 2.24 2.033l.01-.008v4.725h6.75A1.125 1.125 0 0 0 20.25 13.5V6.75a1.125 1.125 0 0 0-1.125-1.125zM18 10.125h-2.25v-2.25H18zM5.625 6.75a2.253 2.253 0 0 1 2.25-2.25h7.875V1.125A1.125 1.125 0 0 0 14.625 0H3.375A1.125 1.125 0 0 0 2.25 1.125v6.75h3.375z" class="cls-1" data-name="Icon awesome-mail-bulk"/>
</svg>
