<svg xmlns="http://www.w3.org/2000/svg" width="14" height="19.478" viewBox="0 0 14 19.478">
    <defs>
        <style>
            .cls-1{fill:none}.cls-2,.cls-3{stroke:none}.cls-3{fill:#d0cfec}
        </style>
    </defs>
    <g id="Icon_awesome-sort" class="cls-1" data-name="Icon awesome-sort">
        <path d="M2.368 15.309h11.645a1.176 1.176 0 0 1 .832 2.006l-5.823 5.823a1.169 1.169 0 0 1-1.659 0l-5.827-5.823a1.176 1.176 0 0 1 .832-2.006zm12.477-5.138L9.022 4.349a1.169 1.169 0 0 0-1.659 0l-5.827 5.823a1.176 1.176 0 0 0 .832 2.006h11.645a1.176 1.176 0 0 0 .832-2.006z" class="cls-2" transform="translate(-1.191 -4.004)"/>
        <path d="M8.191 22.483a.172.172 0 0 0 .124-.052l5.823-5.823a.158.158 0 0 0 .037-.19c-.045-.109-.13-.109-.162-.109H2.368c-.032 0-.117 0-.161.109a.158.158 0 0 0 .036.19l5.828 5.822.002.002.002.002a.16.16 0 0 0 .116.049m5.822-11.305c.032 0 .117 0 .162-.109a.158.158 0 0 0-.037-.19L8.315 5.056a.172.172 0 0 0-.124-.052.16.16 0 0 0-.116.049l-.002.002-.002.002-5.827 5.822a.158.158 0 0 0-.037.19c.044.109.13.109.161.109h11.645M8.191 23.483c-.3 0-.6-.115-.827-.345l-5.828-5.823c-.738-.739-.215-2.006.832-2.006h11.645c1.047 0 1.57 1.267.832 2.006l-5.823 5.823c-.23.23-.53.345-.83.345zm5.822-11.305H2.368c-1.047 0-1.57-1.267-.832-2.006l5.828-5.823a1.172 1.172 0 0 1 1.659 0l5.822 5.823c.739.739.215 2.006-.832 2.006z" class="cls-3" transform="translate(-1.191 -4.004)"/>
    </g>
</svg>
