<svg xmlns="http://www.w3.org/2000/svg" width="50" height="50" viewBox="0 0 50 50">
    <defs>
        <style>
            .cls-1{fill:#fff;stroke-dasharray:4 3}.cls-2,.cls-3{stroke:none}.cls-3{fill:#d0cfec}
        </style>
    </defs>
    <g id="Path_851" class="cls-1" data-name="Path 851">
        <path d="M25 0A25 25 0 1 1 0 25 25 25 0 0 1 25 0z" class="cls-2"/>
        <path d="M25 0H25.177a12.538 12.538 0 0 1 .014 0h.017l.013.001h.081l.014.001h.066l.013.001a.7.7 0 0 0 .016 0h.033l.014.001h.034l.014.001h.035l.028.001H25.587l.014.001h.033l.014.001h.003l.029.001h.031l.002.001a17.084 17.084 0 0 1 .017 0h.015l.014.001h.003l.028.001h.017c.001 0 0 0 0 0l.015.001H25.84l.014.001h.015a.564.564 0 0 1 .031.002H25.918l.014.001H25.95l.014.001h.015a.522.522 0 0 0 .032.002h.017l.014.001h.002l.015.001h.016l.015.001h.002l.03.002h.016l.015.001h.017l.015.002h.017l.03.002.03.001h.002l.015.001.031.002.031.001h.001l.031.002h.016v.001l.03.002h.002l.03.001.032.002.016.001.03.002h.001l.03.002h.001c.82.05 1.627.14 2.423.268l-.158.987A24.269 24.269 0 0 0 25 1V0zm6.91.967a25.41 25.41 0 0 1 1.861.615c.001 0 0 0 0 0l.015.006.029.01h.001l.043.017.03.011.014.006.028.01.002.001.014.005.028.011.002.001.013.005h.001l.013.006h.001l.014.005.002.001.013.005.013.005.003.001.013.005a.398.398 0 0 0 .015.006l.013.005.002.001.013.005.002.001.013.005.014.005.002.001.013.005.002.001.012.005h.002l.012.006h.003l.013.006h.001l.012.005.003.001.012.005.003.001.012.005.013.005.004.001.011.005.004.001.01.004.003.002.012.004.003.002.012.005h.003l.01.005.003.001a14.63 14.63 0 0 1 .016.007l.011.004.003.001.01.004.004.002a14.75 14.75 0 0 1 .015.006l.01.004a1.373 1.373 0 0 0 .015.006l.004.002.011.004.004.002.01.004h.003l.011.006.004.001.012.005.003.001.01.004.004.002.01.004.005.002.01.004.005.002.009.004.004.002.011.004a1.592 1.592 0 0 0 .014.006l.004.002.01.004.005.002.01.004a1.828 1.828 0 0 1 .014.006l.003.001.011.005.005.002.01.004a3.034 3.034 0 0 1 .013.006l.005.002.01.004a2.119 2.119 0 0 0 .014.006l.007.002.007.004.006.002.01.004.005.002.008.004.007.002.008.004.005.002.01.004.006.003.006.003c.003 0 .005.002.007.003l.009.003.005.003c.003 0 .006.002.008.003l.008.003.006.003.006.002.01.005.006.002.007.003.008.004.007.002.005.003.01.004.006.003.007.002.008.004.007.003a2.86 2.86 0 0 1 .015.007l.006.002.006.003.01.004.006.002.006.003.007.003.009.004.005.002.008.004.008.003.006.003.006.002.01.005.005.002.007.003.01.004.005.003.006.002.01.005.005.002.007.003.006.003a9.19 9.19 0 0 1 .015.006l.01.004.005.003.007.003.005.002.01.005.005.002.01.004.006.003.007.003a2.574 2.574 0 0 0 .02.009l.007.003.01.004.006.003.004.002.012.005.004.002.007.003.004.002.012.005.004.002.012.005.004.002.007.003.005.003.011.005a6.776 6.776 0 0 1 .014.006l.006.003.007.003.005.002.01.005.005.002.007.003.01.004a3.626 3.626 0 0 1 .01.005l.011.005.005.002.007.003a3.17 3.17 0 0 1 .016.008l.004.002.01.005.006.002.007.003.004.002.012.005.004.002.012.006.003.001.008.004.004.002.011.005.005.002a42.33 42.33 0 0 1 .038.018l.004.002.007.003.004.002.012.005a3.784 3.784 0 0 1 .016.008l.004.001.007.004.004.002.012.005.004.002.013.006.002.001.008.004.004.002.011.005.004.002.007.003h.002l.014.008.004.001.006.003-.427.905a23.9 23.9 0 0 0-3.589-1.352l.276-.96zm6.37 2.848a25.09 25.09 0 0 1 3.203 2.388l-.66.752a24.163 24.163 0 0 0-3.075-2.293l.532-.847zm5.335 4.497l.003.003.003.004.007.008.005.005.004.005.007.007.004.005.006.006.005.006.006.006.003.004.008.009.003.003.007.008.003.004a11.125 11.125 0 0 1 .01.01l.008.01.003.003.008.01.002.001.007.009.003.003.008.01.003.002.008.01h.001l.009.01.002.003.008.01a.978.978 0 0 1 .021.023l.001.001.01.011v.001l.02.023c.004.004.008.008.01.012h.001l.03.035c.71.816 1.37 1.678 1.97 2.582l.017.026.009.013v.001l.009.012c0 .001 0 0 0 0l.008.013.009.013v.002l.009.012.008.012v.001l.008.012.002.002.007.012h.001l.007.012.002.002.007.01.002.004.007.01.001.003.007.01.002.002.006.011.003.003.006.01.002.004.006.009.002.003.007.01.002.004.006.01.003.003.005.008.003.005.006.01.003.004a8.545 8.545 0 0 1 .01.014l.003.006.004.005.005.01.002.002-.84.54a24.171 24.171 0 0 0-2.328-3.05l.745-.667zm3.891 5.79l.107.224v.001l.014.027v.001l.006.014.007.014.006.013.001.002.006.013v.001l.006.012.001.002.006.012.001.003.006.012v.002l.006.01.001.004.005.011.002.004.005.01.002.004.004.01.002.004.005.01.002.005.004.008.002.005a8.396 8.396 0 0 1 .01.023l.004.007.003.007.003.006.004.009.003.006.002.006.005.01a2.306 2.306 0 0 1 .013.027l.001.004.006.012a1.205 1.205 0 0 1 .012.027l.002.003.006.014v.002l.004.008.001.002.007.015v.002c.352.779.665 1.578.936 2.397v.001l.006.016v.002l.009.026v.002l.006.016v.001l.003.009v.001l.006.016v.003l.005.014.001.003.003.008.001.003.004.013.002.005.003.009.002.008.002.007.002.005.004.01.001.007.003.006c0 .004.002.007.003.01l.002.007.002.006.003.009.002.007.002.006.003.01.002.006.003.008a2.317 2.317 0 0 1 .005.016l.001.005.004.011.001.004.003.01.002.004.003.012.002.004.003.011a2.025 2.025 0 0 0 .005.014v.004l.005.012v.003l.005.013.004.014v.003l.005.013v.002l.005.013.004.015v.001l.005.014v.001l.005.014.004.015v.001l.01.03.004.015.05.166-.957.286a23.907 23.907 0 0 0-1.391-3.574l.9-.436zm2.133 6.644a24.762 24.762 0 0 1 .32 2.818 23.216 23.216 0 0 1 .005.079v.001l.001.029v.002l.002.028v.019l.001.002a23.105 23.105 0 0 1 .004.079v.012l.001.017v.002l.002.028v.03l.001.004v.018l.001.009v.003l.001.015V23.954l.001.018v.003a21.13 21.13 0 0 1 .001.019v.012l.001.014V24.038l.001.012V24.063l.001.006v.017l.001.013V24.118l.001.012a2.615 2.615 0 0 1 0 .013v.006l.001.011v.024l.001.007v.024l.001.007a2.857 2.857 0 0 1 .001.031v.031l.001.01v.022a7.93 7.93 0 0 1 .001.017v.007a7.63 7.63 0 0 1 0 .017l.001.006v.031l.001.012v.037l.001.008v.041l.001.007v.04l.001.008v.056l.001.007v.065l.001.007v.043l-1 .01a24.228 24.228 0 0 0-.344-3.82l.985-.17zm-.78 6.867l.995.108a24.95 24.95 0 0 1-.372 2.365l-.006.028v.001l-.01.047-.005.028v.002l-.005.018-.005.027v.002a30.15 30.15 0 0 1-.006.026l-.001.004-.003.014-.001.004-.002.008v.003l-.003.014-.001.004-.003.013-.001.005-.002.007-.001.006-.002.01-.002.006-.001.007-.001.006-.003.011-.001.006-.002.007-.002.01-.001.006-.002.007-.002.01-.001.006-.002.007-.002.01-.001.006a5.818 5.818 0 0 1-.007.03l-.002.009-.001.005-.003.01v.005l-.003.012-.001.003-.002.01-.001.004-.003.012-.001.004-.003.012v.002l-.003.012v.004l-.004.013a.487.487 0 0 1-.007.03v.002l-.003.014-.004.014v.002l-.003.014v.001l-.004.014-.003.015v.001l-.007.03c-.072.302-.148.602-.23.9l-.964-.265c.338-1.229.579-2.497.716-3.768zm-1.646 6.49l.926.38-.001.002a8.992 8.992 0 0 1-.01.025l-.003.005-.003.009a1.735 1.735 0 0 0-.006.015l-.003.005a8.022 8.022 0 0 1-.009.023l-.002.005-.004.01-.003.006c0 .003-.002.005-.003.007l-.003.009-.003.006-.002.006a7.458 7.458 0 0 1-.007.016l-.003.006a6.19 6.19 0 0 1-.006.015l-.003.007a7.123 7.123 0 0 1-.003.008l-.003.008-.003.006-.004.01-.002.005-.003.007-.002.005-.005.011-.002.005-.004.01-.003.006-.003.007-.002.005-.004.01-.002.005a15.778 15.778 0 0 1-.007.016l-.003.008-.002.004-.005.012-.002.004-.006.015-.004.008-.001.003-.006.014a1.12 1.12 0 0 1-.012.027v.003l-.007.014-.001.002-.01.025-.001.002-.007.015v.001l-.012.025v.002l-.007.016a28.55 28.55 0 0 1-.011.025l-.001.003-.007.015v.001l-.012.025v.002l-.011.025v.001l-.008.016v.001l-.02.043a21.765 21.765 0 0 1-.011.026l-.007.017-.012.026v.001l-.008.016-.011.026-.001.002-.007.015v.001a20.68 20.68 0 0 1-.012.025v.002l-.008.016-.004.009-.008.017-.02.043-.019.042v.002a18.197 18.197 0 0 1-.032.068v.002a17.263 17.263 0 0 1-.02.04v.003l-.007.014-.002.002c0 .003-.002.005-.003.008v.002a17.16 17.16 0 0 1-.009.017l-.006.014-.002.002a15.172 15.172 0 0 1-.01.024l-.002.003-.007.015-.004.009-.001.002-.007.014-.001.003-.007.014v.002l-.004.007-.002.004-.006.012-.002.004-.005.012-.002.004-.004.007-.002.004a33.594 33.594 0 0 1-.007.016l-.005.01a9.387 9.387 0 0 1-.008.017l-.005.01-.002.005a3.913 3.913 0 0 1-.004.007l-.003.006a20.154 20.154 0 0 1-.007.015l-.004.01-.003.005-.003.007-.003.006-.005.01a2.828 2.828 0 0 1-.007.014l-.002.005-.004.007-.003.006-.004.01-.003.005a9.991 9.991 0 0 1-.007.015l-.003.006a3.287 3.287 0 0 1-.01.02l-.004.009-.004.007-.003.006c0 .003-.002.005-.003.007l-.004.008-.003.006a4.126 4.126 0 0 0-.003.006l-.005.01-.002.006-.004.006-.004.009a4.961 4.961 0 0 1-.003.006l-.003.005-.004.01-.003.006a3.805 3.805 0 0 1-.004.007l-.003.007a5.492 5.492 0 0 0-.007.013l-.004.01-.003.005a6.463 6.463 0 0 0-.01.021l-.003.006-.005.01-.003.005-.003.007a5.008 5.008 0 0 1-.004.006l-.004.009-.002.005-.006.01-.002.004a6.568 6.568 0 0 1-.013.028l-.005.01-.003.004a8.024 8.024 0 0 1-.004.008l-.002.004-.005.011-.003.005-.004.01-.003.004a5.161 5.161 0 0 1-.004.008l-.002.005-.005.01-.003.005a8.819 8.819 0 0 1-.004.008l-.003.006-.004.008-.003.005a8.543 8.543 0 0 1-.005.01l-.002.005-.005.008-.002.005-.005.009-.002.004-.005.011-.002.004-.005.01-.002.003-.005.01-.002.004-.006.01-.002.005a9.357 9.357 0 0 1-.004.009l-.002.003-.006.01a1.243 1.243 0 0 1-.01.02l-.004.008-.002.004-.005.01-.002.005-.006.01-.002.004-.004.009-.002.003a27.801 27.801 0 0 1-.008.015l-.005.01-.002.004-.005.01-.002.003-.006.01c0 .002 0 .003-.002.005l-.005.01-.002.003-.005.01-.002.003-.005.011-.002.004-.006.01a.983.983 0 0 1-.007.014l-.001.003-.006.011a1.215 1.215 0 0 0-.009.016l-.005.011-.002.004-.006.01-.002.004-.005.01-.002.002-.005.011a3.536 3.536 0 0 1-.008.015l-.002.004-.005.008c0 .002 0 .003-.002.004l-.005.01-.003.005-.005.01-.002.004a7.62 7.62 0 0 1-.005.01l-.002.002-.006.011-.002.004-.006.011-.001.003-.005.01a.998.998 0 0 1-.008.014l-.002.003-.005.01-.003.004-.004.01-.002.003a15.07 15.07 0 0 1-.014.025l-.001.002-.006.01-.002.004-.006.011-.002.004-.005.01a1.522 1.522 0 0 1-.007.013l-.002.004-.006.01-.002.004-.005.009-.002.003-.005.01-.003.005-.005.01-.003.004-.004.009-.002.004-.006.01a4.045 4.045 0 0 0-.008.014l-.002.004-.005.008-.002.004-.005.01-.003.005-.005.01-.003.005-.004.007-.003.005-.005.01-.003.004-.004.008-.004.007-.004.007c0 .002-.001.003-.003.005l-.005.01a2.602 2.602 0 0 1-.003.005l-.004.006-.004.008-.003.006-.004.006-.005.01-.003.005-.003.006-.005.009-.003.005-.004.006-.004.007-.004.008-.003.005-.006.01-.002.005-.004.006a3.797 3.797 0 0 0-.003.006l-.005.01-.003.003-.006.012-.002.003-.004.007a1.05 1.05 0 0 0-.009.016s0 .002-.002.003l-.007.013-.001.002-.005.008-.008.015-.002.002a17.95 17.95 0 0 1-.036.065c-.119.205-.24.409-.363.61l-.853-.522a23.988 23.988 0 0 0 1.736-3.42zm-3.384 5.78l.784.621a21.906 21.906 0 0 1-.54.658l-.01.012-.001.002a15.479 15.479 0 0 1-.012.014l-.005.006-.003.003-.008.01a3.041 3.041 0 0 0-.003.004l-.008.009-.003.004-.005.006-.004.004-.007.008-.004.005-.007.007-.004.006-.005.005a6.197 6.197 0 0 1-.01.013l-.005.005a4.732 4.732 0 0 0-.021.025l-.004.004a4.644 4.644 0 0 1-.017.02l-.003.003a9.038 9.038 0 0 1-.008.01l-.002.002-.007.008-.003.003-.008.01-.003.003-.008.01-.002.001-.007.009-.002.002-.009.01-.002.003a10.69 10.69 0 0 1-.009.01l-.001.001-.008.01-.002.002-.009.01-.002.002-.009.01v.001l-.01.01v.002l-.01.01-.001.002-.01.01c0 .001 0 0 0 0l-.01.012-.01.011-.001.002-.02.023-.01.011c-.584.66-1.2 1.289-1.85 1.883l-.675-.737a24.22 24.22 0 0 0 2.613-2.81zm-4.847 4.626l.583.812c-.184.132-.368.26-.555.388h-.002l-.037.026-.002.001-.022.015-.015.01-.002.001-.022.016h-.001l-.014.01h-.002c-.007.006-.014.01-.022.015l-.002.002-.013.008-.002.002a17.048 17.048 0 0 1-.024.016l-.013.008-.002.002a22.15 22.15 0 0 1-.038.025h-.001a22.729 22.729 0 0 1-.024.017l-.014.008-.001.002-.008.004-.001.001-.013.009-.003.002-.012.008-.003.001a27.466 27.466 0 0 1-.036.024l-.003.002a4.503 4.503 0 0 0-.007.005h-.002l-.013.01-.003.001-.011.008-.004.002-.006.004-.004.003-.01.007-.004.002-.012.008-.003.001-.007.005-.003.002a7.427 7.427 0 0 1-.011.007l-.004.003-.012.007-.002.002-.007.004-.003.002a12.77 12.77 0 0 1-.012.008l-.003.002-.01.006-.005.004a5.822 5.822 0 0 1-.006.004l-.005.002-.01.007-.004.003-.009.005-.005.004a6.417 6.417 0 0 1-.007.004l-.004.003-.01.006-.004.003-.015.009a6.501 6.501 0 0 0-.006.004l-.005.003-.01.007-.004.002-.014.009-.007.005-.004.002-.01.007-.005.002-.006.004-.003.002-.012.008-.003.002-.012.007-.003.002a18.896 18.896 0 0 1-.025.016l-.011.007-.004.002-.007.005h-.001l-.013.009-.004.002-.011.007-.004.002-.007.004-.003.002-.011.008a4.537 4.537 0 0 1-.015.009l-.004.002-.006.004-.003.002-.012.008-.003.001-.012.008a.792.792 0 0 1-.003.002l-.008.004-.001.001-.014.009-.002.001-.038.023-.002.002-.015.009-.008.005-.015.009-.002.001-.023.014-.002.001-.013.009a.666.666 0 0 1-.025.015h-.002l-.013.01h-.002l-.023.014h-.001l-.015.01h-.001c-.581.352-1.177.68-1.788.985l-.446-.895a24.067 24.067 0 0 0 3.285-1.981zm-5.933 3.108l.336.942c-.292.104-.586.203-.882.296l-.045.014-.03.009-.014.004h-.001a29.613 29.613 0 0 1-.03.01l-.014.004-.014.004-.002.001-.013.004h-.003l-.012.005a16.54 16.54 0 0 1-.017.005l-.013.004h-.002l-.012.004h-.002l-.012.005h-.004l-.012.004-.003.001-.01.003-.005.002c-.004 0-.007.002-.011.003l-.005.001-.009.003-.005.002a9.58 9.58 0 0 1-.01.003l-.005.001a12.79 12.79 0 0 1-.011.004h-.005l-.008.004h-.005l-.011.004-.005.002a7.74 7.74 0 0 1-.01.002l-.006.002-.008.003-.006.001-.01.004-.006.001a4.68 4.68 0 0 1-.023.007l-.006.002-.008.002-.009.003-.006.002-.006.001-.01.003-.007.002-.005.002a9.39 9.39 0 0 1-.012.003l-.005.002a4.25 4.25 0 0 1-.007.002l-.006.002c-.004 0-.007.002-.011.003l-.004.001-.014.004h-.003l-.008.003-.004.001-.013.004-.004.001-.008.002-.003.001-.014.004-.004.001-.013.004-.004.001-.007.002-.004.002c-.005 0-.009.002-.014.003l-.003.001a18.77 18.77 0 0 1-.025.008h-.004l-.014.005h-.003a19.977 19.977 0 0 1-.028.008l-.026.008h-.002l-.016.005h-.002l-.026.007-.002.001a11.783 11.783 0 0 1-.045.012h-.001l-.027.008a32.635 32.635 0 0 1-.045.012l-.003.001-.017.005-.01.002-.018.005h-.001a30.775 30.775 0 0 1-.074.02 31.3 31.3 0 0 1-.028.008l-.018.005h-.001l-.027.007h-.002c-.014.005-.03.008-.044.012h-.003l-.026.008h-.002l-.017.005-.028.007h-.001l-.018.005-.01.002-.017.005h-.002l-.026.007a.541.541 0 0 1-.018.005h-.003l-.008.002h-.002l-.016.005h-.002l-.027.007h-.002l-.015.004a.973.973 0 0 1-.029.008h-.003a20.43 20.43 0 0 1-.017.005l-.009.002h-.002l-.015.004-.004.001a19.6 19.6 0 0 1-.046.012c-.003 0-.005 0-.008.002h-.003l-.014.004h-.005a16.47 16.47 0 0 1-.013.004h-.004l-.008.003h-.004l-.013.004-.004.001-.008.002h-.003l-.014.004-.005.001-.011.003-.006.001-.007.002-.007.002-.01.002-.005.001-.008.002-.01.002-.006.002a4.283 4.283 0 0 1-.016.004l-.007.001-.007.002-.01.002a3.718 3.718 0 0 1-.013.003l-.008.002-.008.002-.007.002-.008.002-.008.002-.007.001-.006.002-.011.002-.006.002-.008.001-.007.002a8.026 8.026 0 0 1-.014.003l-.012.003-.005.001-.008.002-.005.001-.012.003-.005.001a7.385 7.385 0 0 1-.015.004l-.01.002h-.004l-.012.003-.005.002-.009.002h-.004l-.012.003-.005.001-.012.003h-.003a10.855 10.855 0 0 0-.014.004l-.013.003h-.004a12.025 12.025 0 0 1-.014.004l-.012.003h-.004l-.012.003h-.003l-.012.003h-.002l-.014.004h-.003l-.013.003h-.002a6.852 6.852 0 0 1-.015.004l-.013.003h-.002l-.028.007h-.003l-.014.003-.015.003-.015.004h-.002l-.029.006h-.001l-.015.004-.03.006h-.001c-.226.048-.452.093-.68.135l-.18-.984a23.898 23.898 0 0 0 3.704-.99zm-10.4 1.27a24.407 24.407 0 0 0 3.838.068l.061.998-.151.009H26.387a.5.5 0 0 0-.01 0h-.003a5.065 5.065 0 0 1-.023.002h-.011l-.006.001h-.015l-.009.001h-.002l-.024.002h-.023-.002l-.047.003c-.273.013-.547.022-.822.026h-.012-.049-.001l-.01.001h-.038-.001a8.757 8.757 0 0 1-.022 0h-.013l-.012.001h-.012-.023H25.184h-.013-.012-.023-.026H25.062h-.001L25.05 50H24.99 24.81h-.01a.605.605 0 0 0-.042-.001h-.02-.023a4.407 4.407 0 0 1-.01 0h-.007-.01-.002l-.008-.001h-.003a3.791 3.791 0 0 1-.01 0h-.007-.01-.01-.01-.011-.001l-.009-.001h-.001a6.309 6.309 0 0 1-.01 0h-.009-.001a25.283 25.283 0 0 1-.07-.002h-.03-.031l-.01-.001h-.04a25.301 25.301 0 0 1-1.012-.045h-.008-.001l-.009-.001h-.01-.002l-.007-.001h-.01l-.003-.001h-.007-.003l-.007-.001H23.317l-.004-.001h-.01l-.005-.001h-.01l-.004-.001h-.01l-.005-.001H23.26l-.006-.001h-.01-.002l-.045-.004-.019-.001-.01-.001h-.009l-.019-.002a25.144 25.144 0 0 1-.587-.05l.096-.996zm-6.509-1.575c1.186.471 2.42.85 3.667 1.125l-.216.976a24.813 24.813 0 0 1-3.82-1.172l.37-.929zm-5.816-3.32a24.106 24.106 0 0 0 3.211 2.098l-.478.878a23.963 23.963 0 0 1-.728-.413h-.002l-.015-.01a23.518 23.518 0 0 1-.026-.015l-.014-.008h-.001l-.008-.005-.002-.001-.013-.008-.003-.002-.013-.008h-.002l-.007-.005-.002-.001a17.07 17.07 0 0 1-.014-.009h-.002l-.023-.014-.002-.002-.012-.007-.004-.003-.011-.006-.004-.002-.007-.004-.004-.003a15.637 15.637 0 0 0-.024-.014l-.005-.004-.007-.003-.005-.004-.01-.005-.004-.003a9.02 9.02 0 0 1-.008-.005l-.007-.004-.006-.004-.006-.004-.007-.004a6.492 6.492 0 0 1-.007-.004l-.005-.003a12.784 12.784 0 0 1-.01-.006l-.005-.003-.007-.004-.006-.004-.007-.005c-.002 0-.003-.001-.005-.003a8.127 8.127 0 0 1-.01-.005l-.004-.003-.008-.005a4.482 4.482 0 0 0-.014-.008l-.004-.003-.01-.006a2.39 2.39 0 0 1-.004-.003l-.009-.005a2.57 2.57 0 0 0-.004-.003l-.009-.005-.004-.002-.01-.007-.004-.002a12.826 12.826 0 0 1-.01-.006l-.003-.002a4.862 4.862 0 0 1-.01-.006l-.003-.002a15.605 15.605 0 0 0-.014-.009l-.01-.006-.002-.001-.01-.007a1.251 1.251 0 0 1-.017-.01l-.01-.007h-.002l-.012-.008-.002-.001a11.815 11.815 0 0 1-.012-.007l-.001-.002a12.31 12.31 0 0 1-.012-.007l-.013-.008-.002-.001-.012-.007-.001-.001a9.48 9.48 0 0 1-.012-.008l-.013-.008h-.001a35.186 35.186 0 0 1-.012-.008l-.001-.001a25.788 25.788 0 0 1-.065-.041h-.001a25.066 25.066 0 0 1-1.878-1.314l-.001-.001-.012-.01a28.072 28.072 0 0 1-.024-.018h-.002a11.006 11.006 0 0 1-.01-.01h-.001l.612-.79zm-4.678-4.797a24.209 24.209 0 0 0 2.51 2.902l-.702.712a25.137 25.137 0 0 1-2.614-3.022l.806-.592zm-3.173-5.898c.44 1.197.982 2.368 1.61 3.48l-.87.492a24.901 24.901 0 0 1-.339-.62l-.008-.015v-.001a29.298 29.298 0 0 1-.013-.025l-.008-.015-.002-.003a26.315 26.315 0 0 1-.012-.023l-.001-.003-.007-.012-.002-.004a11.71 11.71 0 0 0-.006-.012l-.005-.01-.003-.005a15.791 15.791 0 0 1-.004-.008l-.004-.007-.003-.006-.004-.008-.003-.006-.004-.007a6.744 6.744 0 0 0-.01-.02l-.005-.01-.002-.004-.005-.009a3.92 3.92 0 0 0-.002-.003l-.005-.011-.002-.004-.006-.01a.886.886 0 0 1-.008-.017l-.006-.012-.001-.002a38.361 38.361 0 0 1-.013-.025l-.001-.002a9.32 9.32 0 0 1-.006-.012l-.001-.002-.007-.013a13.972 13.972 0 0 1-.006-.013l-.001-.002a14.712 14.712 0 0 1-.02-.04l-.001-.001a24.874 24.874 0 0 1-.758-1.645 24.53 24.53 0 0 1-.018-.043v-.001a24.29 24.29 0 0 1-.012-.028v-.001a13.828 13.828 0 0 1-.018-.042v-.002l-.006-.013v-.002l-.006-.012v-.001a17.118 17.118 0 0 1-.007-.016l-.005-.012v-.003l-.005-.01-.001-.003-.005-.012a1.642 1.642 0 0 1-.008-.02l-.004-.008-.001-.004-.005-.011-.002-.005-.003-.01-.003-.006-.003-.007-.002-.006-.004-.01-.003-.006-.003-.007c0-.003-.002-.005-.003-.008l-.002-.007-.003-.006-.004-.01-.002-.006-.002-.005-.005-.011-.002-.005-.003-.007a.691.691 0 0 1-.006-.017l-.002-.003-.005-.014-.001-.003a28.414 28.414 0 0 1-.22-.576l.938-.346zm-1.41-6.547c.092 1.277.287 2.553.58 3.792l-.973.23a24.892 24.892 0 0 1-.418-2.212l-.005-.031-.002-.016a26.4 26.4 0 0 1-.004-.03v-.002a19 19 0 0 1-.005-.03l-.002-.015v-.001l-.002-.014v-.001l-.002-.015v-.002l-.004-.028v-.003l-.002-.013v-.003l-.002-.012v-.002l-.002-.014v-.003l-.002-.012v-.003l-.002-.012v-.004l-.003-.013v-.003l-.001-.01v-.004a14.726 14.726 0 0 1-.005-.031l-.002-.013v-.004l-.002-.012V28.2l-.001-.01a1.708 1.708 0 0 1-.003-.017v-.005l-.001-.009v-.005l-.002-.01-.001-.007-.001-.009-.001-.008-.001-.007v-.006l-.002-.011-.001-.007v-.006l-.002-.01v-.007l-.002-.007v-.007l-.002-.01v-.007l-.001-.007-.001-.007-.002-.01v-.006l-.002-.012v-.005l-.001-.008v-.004l-.002-.015v-.003l-.002-.009a.375.375 0 0 0-.002-.021 21.591 21.591 0 0 1-.006-.046v-.002l-.001-.01-.002-.018v-.002c-.039-.34-.07-.683-.096-1.028l.998-.072zm-.534-6.89l.979.204a24.114 24.114 0 0 0-.482 3.806l-.999-.046c.022-.465.056-.926.102-1.384l.004-.031v-.001l.001-.015.002-.016.002-.015v-.001l.003-.03v-.002l.001-.014v-.002l.002-.012v-.003l.002-.014v-.002l.001-.013v-.002l.002-.013v-.004l.002-.013v-.002l.001-.011v-.005l.002-.012v-.004l.002-.01v-.004l.002-.012v-.005l.001-.01v-.005l.002-.011v-.005l.002-.012v-.004l.002-.01v-.004l.002-.012v-.006l.001-.008.001-.007.001-.01v-.006l.002-.008v-.008l.002-.008v-.006l.002-.01v-.007l.001-.007.001-.01.001-.007.001-.007v-.007l.002-.01v-.006l.002-.007a2.494 2.494 0 0 1 .002-.018v-.005l.002-.014v-.003l.002-.008V21.9l.002-.014v-.003l.001-.009v-.003l.003-.015v-.004l.003-.026v-.003l.003-.017v-.001l.001-.009v-.002l.003-.016v-.003l.004-.028v-.001l.003-.029.007-.048c.081-.611.185-1.215.31-1.81zm2.373-6.561l.883.468a23.93 23.93 0 0 0-1.52 3.521l-.946-.321v-.003l.004-.01.002-.006.002-.006a7.96 7.96 0 0 1 .003-.01l.003-.006.002-.007.002-.006.004-.01.001-.005.004-.012.002-.005.002-.007.002-.004.004-.013.001-.004.005-.013.001-.004.003-.007.001-.004.005-.013.001-.004.009-.025v-.002l.006-.015v-.002l.01-.026v-.001l.006-.017.01-.027v-.002l.015-.043v-.001l.01-.027.006-.018a27.367 27.367 0 0 1 .017-.045l.01-.027a22.081 22.081 0 0 1 .049-.135c.033-.093.068-.185.103-.277l.061-.16.007-.018a23.207 23.207 0 0 1 .039-.098 66.243 66.243 0 0 1 .017-.044v-.002l.007-.015v-.002l.01-.025.001-.002.006-.015.001-.002.01-.024.001-.004.005-.013.002-.004.003-.007.001-.003.005-.013.002-.004.005-.014.001-.002.004-.008.001-.004.005-.012.002-.004.004-.011.002-.005.003-.007.002-.005.005-.011.002-.005.002-.007.004-.01.003-.006.002-.006.004-.01a4.122 4.122 0 0 0 .005-.012l.004-.01.003-.005.002-.006.004-.009c0-.003.002-.005.003-.007l.002-.006.004-.01.002-.005.003-.008.003-.005.004-.01.002-.005.004-.01.002-.005.004-.009.001-.004.005-.011.002-.005.004-.009.002-.005.004-.01.002-.004.004-.01.002-.005.004-.01.002-.004.004-.01.002-.004.005-.011.001-.004.004-.01.001-.003.006-.012v-.003l.006-.012.001-.002.005-.012v-.002l.006-.012a1.87 1.87 0 0 0 .006-.015l.001-.002.005-.011.001-.003.005-.013.001-.002.006-.013.006-.013v-.002l.006-.013v-.002l.012-.026.001-.002.006-.013v-.002l.006-.013.006-.014v-.001l.006-.014.007-.014.006-.014v-.001l.019-.042.012-.029c.249-.567.518-1.123.807-1.667zM7 7.65l.72.694a24.196 24.196 0 0 0-2.435 2.965l-.821-.57a24.33 24.33 0 0 1 .72-.984v-.001l.02-.024V9.73l.009-.012.029-.037.019-.025.01-.012.019-.024v-.001l.01-.012a.45.45 0 0 0 .018-.024l.001-.001.01-.012.018-.024.001-.001.009-.011.002-.002.008-.011.009-.011.002-.002.008-.01.002-.003.008-.01.001-.002.008-.01.002-.002.008-.01.002-.003.008-.01v-.001a10.296 10.296 0 0 1 .011-.013l.008-.01.002-.003.008-.01.002-.002.007-.009.002-.003.008-.01.003-.003a17.306 17.306 0 0 1 .019-.023l.007-.01.003-.003.007-.009.003-.003.007-.009a1.756 1.756 0 0 1 .013-.016l.007-.009.002-.003.007-.008.003-.004.007-.009.003-.003.006-.008a2.3 2.3 0 0 1 .004-.005l.006-.007.003-.004.008-.009.003-.004.006-.007.004-.006.006-.006.003-.004.007-.01.004-.004.005-.006.005-.006.005-.007.004-.004.007-.008.004-.005.005-.006.005-.007a5.61 5.61 0 0 0 .02-.024l.004-.005.006-.007.004-.006.004-.005.007-.008.004-.005.005-.005.006-.008.004-.005.004-.005.007-.008.004-.005.004-.004.007-.01.004-.004.005-.005.006-.008.005-.006.003-.003.008-.01.003-.003.016-.02.003-.003a19.181 19.181 0 0 1 .029-.035l.01-.012.001-.002a29.854 29.854 0 0 1 .019-.022l.01-.012.001-.002.018-.02.001-.002.01-.012.001-.001.018-.021C6.272 8.43 6.63 8.034 7 7.65zm5.493-4.302l.5.865a24.13 24.13 0 0 0-3.155 2.181l-.633-.775a25.178 25.178 0 0 1 1.366-1.039l.038-.026.013-.01.025-.017c.001 0 0 0 0 0 .005-.003.01-.006.013-.01l.025-.017h.001l.013-.009.025-.018.013-.009.026-.018.038-.026h.001l.012-.01.026-.017.013-.009.025-.017h.001l.038-.027.039-.026.039-.027.038-.026.026-.017.013-.009h.001l.025-.017.013-.009h.001l.025-.017v-.001l.013-.008h.001l.025-.017v-.001l.013-.008a.431.431 0 0 1 .014-.01 21.33 21.33 0 0 1 .025-.016l.002-.001.024-.016h.001l.012-.009h.002l.024-.017h.002l.011-.008.002-.002.012-.007.012-.008.002-.001.011-.008.002-.001.012-.008.012-.008.002-.001.012-.008h.002l.023-.016.003-.002.01-.007.003-.002.011-.007h.001l.012-.008.002-.001.011-.008.003-.001.01-.007.002-.001a7.134 7.134 0 0 1 .014-.009l.01-.007.003-.002.01-.006.002-.001.011-.008.003-.001.011-.007.003-.002.01-.006.002-.002.01-.007a2.314 2.314 0 0 1 .015-.008l.003-.003.01-.005.002-.002.01-.007.004-.002.01-.007.004-.002.008-.005.005-.003a11.511 11.511 0 0 1 .023-.015l.004-.002.007-.005.005-.003.009-.006.005-.003.01-.006.004-.002a7.68 7.68 0 0 0 .011-.008l.01-.006.005-.003.008-.005.006-.004a6.55 6.55 0 0 0 .007-.004l.005-.003.009-.006.005-.003.009-.006.005-.003a3.574 3.574 0 0 1 .013-.008l.007-.004.006-.004.006-.004.008-.005c.002 0 .004-.002.005-.003l.009-.005.006-.004.006-.004c.002 0 .003-.002.004-.003l.01-.006c.002 0 .004-.002.005-.003l.01-.006.004-.002.007-.005.004-.002.01-.007.005-.002.01-.007.004-.002.008-.004.002-.002.013-.008.002-.001.023-.014.002-.002.013-.007a.823.823 0 0 1 .025-.016h.001l.015-.01h.001c.154-.094.308-.185.464-.275zM18.96.734l.241.97a23.888 23.888 0 0 0-3.636 1.22l-.393-.919c.125-.053.25-.106.377-.157l.017-.007h.001a26.186 26.186 0 0 1 .07-.029h.001l.016-.007h.001l.008-.004h.003l.013-.006.004-.002.013-.005a1.027 1.027 0 0 1 .01-.004l.005-.002.012-.004.004-.002.007-.003.005-.002.011-.005.005-.001.01-.004.006-.003.007-.002.007-.003a17.782 17.782 0 0 0 .015-.006l.005-.002.01-.004.006-.003c.003 0 .006-.002.008-.003l.007-.002.008-.003.005-.003c.003 0 .007-.002.01-.004l.006-.002.008-.003.005-.002.01-.004.005-.002.01-.004.005-.002c.003 0 .005-.002.008-.003l.005-.002.01-.004.005-.002c.003 0 .007-.002.01-.004l.005-.001.01-.004.003-.002.012-.004.004-.002c.003 0 .007-.002.01-.004h.003l.011-.005.004-.001.011-.005.004-.001.01-.004.003-.001.012-.005.003-.001.013-.005h.002l.011-.005.003-.001.012-.005h.003c.009-.004.018-.008.026-.01l.002-.002.013-.005h.002l.013-.005.014-.005.002-.001.013-.005h.001l.014-.006.014-.005h.002l.027-.011h.001l.014-.006.03-.01.043-.017h.001a24.8 24.8 0 0 1 1.888-.614L18.26.92l.03-.009.046-.012.045-.013c.001 0 0 0 0 0l.03-.008c.001 0 0 0 0 0l.016-.004.03-.008.015-.004.015-.005.015-.003h.002l.029-.009.015-.004.03-.008h.001l.015-.004.03-.008h.001l.03-.008.015-.004h.001L18.701.8h.002l.013-.004h.002l.014-.004.014-.003.002-.001.014-.004h.001l.014-.003h.002l.013-.004a.467.467 0 0 1 .03-.008h.003l.013-.004h.003l.012-.004h.002l.013-.003.003-.001.013-.004h.002L18.9.75h.002l.013-.004h.003l.013-.004h.002l.012-.004h.003l.013-.003h.001zM25 0v1c-.992 0-1.99.061-2.968.182L21.91.189l.38-.044.012-.001.036-.004.011-.001h.002l.01-.001h.001l.012-.002s-.001 0 0 0h.012V.134l.01-.001h.003l.01-.001h.002l.009-.001h.002l.01-.002h.002l.011-.001h.002l.009-.001h.004l.006-.001h.006l.005-.001h.006l.006-.002h.015l.005-.001.006-.001h.005a2.536 2.536 0 0 0 .011-.002h.011l.003-.001.014-.001h.004l.007-.001h.003l.007-.001h.004l.007-.001h.004c.008-.002.016-.002.025-.003h.002L22.63.11h.002L22.64.11h.002l.038-.004h.011L22.739.1h.001L22.75.1l.01-.001.039-.003c.36-.032.72-.056 1.084-.072l.05-.002h.01l.05-.002h.011l.039-.002H24.065l.039-.002h.011a17.894 17.894 0 0 1 .049-.002h.012l.038-.002h.023l.028-.001h.019l.003-.001a4.91 4.91 0 0 0 .04-.001h.032l.014-.001h.025l.007-.001h.038l.005-.001H24.491l.006-.001H24.54l.006-.001h.055l.006-.001h.006a2.171 2.171 0 0 1 .011 0h.017a2.417 2.417 0 0 1 .014 0h.017l.007-.001h.043a4.433 4.433 0 0 1 .012 0h.034l.01-.001H24.94L24.95 0H25z" class="cls-3"/>
    </g>
</svg>
