<svg xmlns="http://www.w3.org/2000/svg" width="49.473" height="38.147" viewBox="0 0 49.473 38.147">
  <path id="Icon_awesome-r-project" data-name="Icon awesome-r-project" d="M49.472,18.82c0-9.154-11.078-16.57-24.736-16.57S0,9.667,0,18.82c0,8.157,8.8,14.935,20.385,16.306V40.4h8.438V35.161a33.775,33.775,0,0,0,5.909-1.184l3.415,6.42h9.537l-5.739-9.682C46.586,27.7,49.472,23.487,49.472,18.82ZM9.724,20.055c0-6.259,8.421-11.325,18.8-11.325S46.569,12.2,46.569,20.055c0,4.266-2.256,7.238-5.986,9.06a4.49,4.49,0,0,0-.545-.315,18.267,18.267,0,0,0-2.367-.894s7.374-.545,7.374-7.893-7.715-7.485-7.715-7.485H20.385V30.265c-6.31-1.831-10.661-5.714-10.661-10.21Zm19.167,3.261V18.582c4.922,0,7.476-.579,7.476,2.325C36.368,24.014,33.115,23.316,28.892,23.316Zm-.077,6.173H31.08c.92,0,1.609,1,2.044,1.635a38.737,38.737,0,0,1-4.309.247V29.49Z" transform="translate(0 -2.25)" fill="#f29d53"/>
</svg>
