<svg xmlns="http://www.w3.org/2000/svg" width="40.5" height="31.5" viewBox="0 0 40.5 31.5">
  <path id="Icon_awesome-object-ungroup" data-name="Icon awesome-object-ungroup" d="M4.5,22.5v1.828a.422.422,0,0,1-.422.422H.422A.422.422,0,0,1,0,24.328V20.672a.422.422,0,0,1,.422-.422H2.25V6.75H.422A.422.422,0,0,1,0,6.328V2.672A.422.422,0,0,1,.422,2.25H4.078a.422.422,0,0,1,.422.422V4.5H24.75V2.672a.422.422,0,0,1,.422-.422h3.656a.422.422,0,0,1,.422.422V6.328a.422.422,0,0,1-.422.422H27v13.5h1.828a.422.422,0,0,1,.422.422v3.656a.422.422,0,0,1-.422.422H25.172a.422.422,0,0,1-.422-.422V22.5ZM38.25,18V15.75h1.828a.422.422,0,0,0,.422-.422V11.672a.422.422,0,0,0-.422-.422H36.422a.422.422,0,0,0-.422.422V13.5H28.688v5.063h.563a1.687,1.687,0,0,1,1.688,1.688v4.5a1.687,1.687,0,0,1-1.687,1.688h-4.5a1.687,1.687,0,0,1-1.687-1.687v-.562H13.5V29.25H11.672a.422.422,0,0,0-.422.422v3.656a.422.422,0,0,0,.422.422h3.656a.422.422,0,0,0,.422-.422V31.5H36v1.828a.422.422,0,0,0,.422.422h3.656a.422.422,0,0,0,.422-.422V29.672a.422.422,0,0,0-.422-.422H38.25Z" transform="translate(0 -2.25)" fill="#25e381"/>
</svg>
