<svg xmlns="http://www.w3.org/2000/svg" width="40" height="40" viewBox="0 0 40 40">
  <g id="Group_11408" data-name="Group 11408" transform="translate(-1695 -22)">
    <g id="Path_869" data-name="Path 869" transform="translate(1695 22)" fill="#fff">
      <path d="M 25 39.5 L 15 39.5 C 11.12691020965576 39.5 7.485640048980713 37.99174118041992 4.746950149536133 35.2530517578125 C 2.008260011672974 32.51435852050781 0.5 28.87309074401855 0.5 25 L 0.5 15 C 0.5 11.12691020965576 2.008260011672974 7.485640048980713 4.746950149536133 4.746950149536133 C 7.485640048980713 2.008260011672974 11.12691020965576 0.5 15 0.5 L 25 0.5 C 28.87309074401855 0.5 32.51435852050781 2.008260011672974 35.2530517578125 4.746950149536133 C 37.99174118041992 7.485640048980713 39.5 11.12691020965576 39.5 15 L 39.5 25 C 39.5 28.87309074401855 37.99174118041992 32.51435852050781 35.2530517578125 35.2530517578125 C 32.51435852050781 37.99174118041992 28.87309074401855 39.5 25 39.5 Z" stroke="none"/>
      <path d="M 15 1 C 11.26046943664551 1 7.744758605957031 2.456249237060547 5.100509643554688 5.100509643554688 C 2.456249237060547 7.744758605957031 1 11.26046943664551 1 15 L 1 25 C 1 28.73952865600586 2.456249237060547 32.25524139404297 5.100509643554688 34.89949035644531 C 7.744758605957031 37.54375076293945 11.26046943664551 39 15 39 L 25 39 C 28.73952865600586 39 32.25524139404297 37.54375076293945 34.89949035644531 34.89949035644531 C 37.54375076293945 32.25524139404297 39 28.73952865600586 39 25 L 39 15 C 39 11.26046943664551 37.54375076293945 7.744758605957031 34.89949035644531 5.100509643554688 C 32.25524139404297 2.456249237060547 28.73952865600586 1 25 1 L 15 1 M 15 0 L 25 0 C 33.28427124023438 0 40 6.715728759765625 40 15 L 40 25 C 40 33.28427124023438 33.28427124023438 40 25 40 L 15 40 C 6.715728759765625 40 0 33.28427124023438 0 25 L 0 15 C 0 6.715728759765625 6.715728759765625 0 15 0 Z" stroke="none" fill="#4e58a9"/>
    </g>
    <g id="Icon_feather-plus" data-name="Icon feather-plus" transform="translate(1706 33)">
      <path id="Path_77" data-name="Path 77" d="M18,7.5v18" transform="translate(-9 -7.5)" fill="none" stroke="#4e58a9" stroke-linecap="round" stroke-linejoin="round" stroke-width="3"/>
      <path id="Path_78" data-name="Path 78" d="M7.5,18h18" transform="translate(-7.5 -9)" fill="none" stroke="#4e58a9" stroke-linecap="round" stroke-linejoin="round" stroke-width="3"/>
    </g>
  </g>
</svg>
