<svg xmlns="http://www.w3.org/2000/svg" width="26" height="18" viewBox="0 0 26 18">
  <g id="Group_11260" data-name="Group 11260" transform="translate(0 -0.404)">
    <path id="Subtraction_8" data-name="Subtraction 8" d="M23,18H3a3,3,0,0,1-3-3V12A3,3,0,0,0,3,9,3,3,0,0,0,0,6V3A3,3,0,0,1,3,0H23a3,3,0,0,1,3,3V6a3,3,0,1,0,0,6v3A3,3,0,0,1,23,18Z" transform="translate(0 0.404)" fill="#4e58a9"/>
    <g id="Group_11259" data-name="Group 11259" transform="translate(6 5)">
      <g id="Rectangle_619" data-name="Rectangle 619" transform="translate(0 0.404)" fill="#4e58a9" stroke="#d0cfec" stroke-width="1">
        <rect width="14" height="8" rx="2" stroke="none"/>
        <rect x="0.5" y="0.5" width="13" height="7" rx="1.5" fill="none"/>
      </g>
      <g id="Group_11258" data-name="Group 11258" transform="translate(4 3.903)">
        <circle id="Ellipse_3379" data-name="Ellipse 3379" cx="0.5" cy="0.5" r="0.5" fill="#d0cfec"/>
        <circle id="Ellipse_3380" data-name="Ellipse 3380" cx="0.5" cy="0.5" r="0.5" transform="translate(2.5)" fill="#d0cfec"/>
        <circle id="Ellipse_3381" data-name="Ellipse 3381" cx="0.5" cy="0.5" r="0.5" transform="translate(5)" fill="#d0cfec"/>
      </g>
    </g>
  </g>
</svg>
