<svg id="Group_11332" data-name="Group 11332" xmlns="http://www.w3.org/2000/svg" width="37" height="37" viewBox="0 0 37 37">
  <g id="Rectangle_642" data-name="Rectangle 642" fill="#fff" stroke="#4e58a9" stroke-width="1" stroke-dasharray="2">
    <rect width="37" height="37" rx="18.5" stroke="none"/>
    <rect x="0.5" y="0.5" width="36" height="36" rx="18" fill="none"/>
  </g>
  <path id="Icon_awesome-chevron-down" data-name="Icon awesome-chevron-down" d="M6.351,16.311.606,10.565a.71.71,0,0,1,0-1l.67-.67a.71.71,0,0,1,1,0l4.575,4.554L11.428,8.89a.71.71,0,0,1,1,0l.67.67a.71.71,0,0,1,0,1L7.355,16.311A.71.71,0,0,1,6.351,16.311Z" transform="translate(11.337 7.182)" fill="#4e58a9"/>
</svg>
