<svg xmlns="http://www.w3.org/2000/svg" width="42" height="42" viewBox="0 0 42 42">
  <g id="Group_11862" data-name="Group 11862" transform="translate(-1033 -109)">
    <path id="Path_982" data-name="Path 982" d="M21,0A21,21,0,1,1,0,21,21,21,0,0,1,21,0Z" transform="translate(1033 109)" fill="rgba(78,88,169,0.1)"/>
    <path id="Icon_awesome-ellipsis-v" data-name="Icon awesome-ellipsis-v" d="M4.116,6.5A2.428,2.428,0,1,1,1.688,8.926,2.427,2.427,0,0,1,4.116,6.5ZM1.688,2.991A2.428,2.428,0,1,0,4.116.563,2.427,2.427,0,0,0,1.688,2.991Zm0,11.87a2.428,2.428,0,1,0,2.428-2.428A2.427,2.427,0,0,0,1.688,14.861Z" transform="translate(1050 121)" fill="#4e58a9"/>
  </g>
</svg>
