<svg xmlns="http://www.w3.org/2000/svg" width="30" height="24" viewBox="0 0 30 24">
  <path id="Icon_awesome-project-diagram" data-name="Icon awesome-project-diagram" d="M18,15H12a1.5,1.5,0,0,0-1.5,1.5v6A1.5,1.5,0,0,0,12,24h6a1.5,1.5,0,0,0,1.5-1.5v-6A1.5,1.5,0,0,0,18,15ZM9,1.5A1.5,1.5,0,0,0,7.5,0h-6A1.5,1.5,0,0,0,0,1.5v6A1.5,1.5,0,0,0,1.5,9H5.987l3.429,6A2.99,2.99,0,0,1,12,13.5h.013L9,8.227V6H19.5V3H9ZM28.5,0h-6A1.5,1.5,0,0,0,21,1.5v6A1.5,1.5,0,0,0,22.5,9h6A1.5,1.5,0,0,0,30,7.5v-6A1.5,1.5,0,0,0,28.5,0Z" fill="#4e58a9"/>
</svg>
