<svg xmlns="http://www.w3.org/2000/svg" width="14" height="19.478" viewBox="0 0 14 19.478">
  <g id="Icon_awesome-sort" data-name="Icon awesome-sort" transform="translate(-1.191 -4.004)" fill="none">
    <path d="M2.368,15.309H14.013a1.176,1.176,0,0,1,.832,2.006L9.022,23.138a1.169,1.169,0,0,1-1.659,0L1.536,17.315A1.176,1.176,0,0,1,2.368,15.309Zm12.477-5.138L9.022,4.349a1.169,1.169,0,0,0-1.659,0L1.536,10.172a1.176,1.176,0,0,0,.832,2.006H14.013A1.176,1.176,0,0,0,14.845,10.172Z" stroke="none"/>
    <path d="M 8.191304206848145 22.48275947570801 C 8.224164009094238 22.48275947570801 8.272363662719727 22.47373008728027 8.315373420715332 22.43070983886719 L 14.13787364959717 16.60820960998535 C 14.1602840423584 16.5858097076416 14.21980381011963 16.52627944946289 14.17485427856445 16.41775894165039 C 14.12991428375244 16.30924987792969 14.0451135635376 16.30924987792969 14.01319408416748 16.30924987792969 L 2.368193864822388 16.30924987792969 C 2.336273908615112 16.30924987792969 2.251473903656006 16.30924987792969 2.206533908843994 16.41775894165039 C 2.16158390045166 16.52627944946289 2.22110390663147 16.5858097076416 2.243213891983032 16.60791969299316 L 8.070613861083984 22.430419921875 L 8.072644233703613 22.43244934082031 L 8.074673652648926 22.43449020385742 C 8.114144325256348 22.47439002990723 8.159883499145508 22.48275947570801 8.191304206848145 22.48275947570801 M 14.01319408416748 11.17781925201416 C 14.0451135635376 11.17781925201416 14.12991428375244 11.17781925201416 14.17485427856445 11.06930923461914 C 14.21980381011963 10.96078968048096 14.1602840423584 10.90125942230225 14.13787364959717 10.8788595199585 L 8.315373420715332 5.056349277496338 C 8.272363662719727 5.01332950592041 8.224164009094238 5.004299163818359 8.191304206848145 5.004299163818359 C 8.159883499145508 5.004299163818359 8.114144325256348 5.012669086456299 8.074673652648926 5.052569389343262 L 8.072644233703613 5.054609298706055 L 8.070613861083984 5.056639194488525 L 2.243513822555542 10.8788595199585 C 2.22110390663147 10.90125942230225 2.16158390045166 10.96078968048096 2.206533908843994 11.06930923461914 C 2.251473903656006 11.17781925201416 2.336273908615112 11.17781925201416 2.368193864822388 11.17781925201416 L 14.01319408416748 11.17781925201416 M 8.191306114196777 23.48275947570801 C 7.891006469726563 23.48275947570801 7.59131908416748 23.36777877807617 7.363803863525391 23.13781929016113 L 1.536403894424438 17.3153190612793 C 0.7975838780403137 16.57649993896484 1.321123838424683 15.30924892425537 2.368193864822388 15.30924892425537 L 14.01319408416748 15.30924892425537 C 15.06026363372803 15.30924892425537 15.5838041305542 16.57649993896484 14.84498405456543 17.3153190612793 L 9.022483825683594 23.13781929016113 C 8.792518615722656 23.36777877807617 8.491606712341309 23.48275947570801 8.191306114196777 23.48275947570801 Z M 14.01319408416748 12.17781925201416 L 2.368193864822388 12.17781925201416 C 1.321123838424683 12.17781925201416 0.7975838780403137 10.910569190979 1.536403894424438 10.17174911499023 L 7.363803863525391 4.349239349365234 C 7.59131908416748 4.119279384613037 7.891006469726563 4.004299163818359 8.191306114196777 4.004299163818359 C 8.491606712341309 4.004299163818359 8.792518615722656 4.119279384613037 9.022483825683594 4.349239349365234 L 14.84498405456543 10.17174911499023 C 15.5838041305542 10.910569190979 15.06026363372803 12.17781925201416 14.01319408416748 12.17781925201416 Z" stroke="none" fill="#4e58a9"/>
  </g>
</svg>
