<svg xmlns="http://www.w3.org/2000/svg" width="34.154" height="18.5" viewBox="0 0 34.154 18.5">
  <path id="Icon_material-group-add" data-name="Icon material-group-add" d="M11.385,14.615H7.115V10.346H4.269v4.269H0v2.846H4.269v4.269H7.115V17.462h4.269Zm14.231,1.423A4.269,4.269,0,1,0,24.32,7.7a7.022,7.022,0,0,1,1.281,4.07,7.16,7.16,0,0,1-1.281,4.07A4.255,4.255,0,0,0,25.615,16.038Zm-7.115,0a4.269,4.269,0,1,0-4.269-4.269A4.251,4.251,0,0,0,18.5,16.038Zm9.421,3.074a5.265,5.265,0,0,1,1.964,4.042V26h4.269V23.154C34.154,20.962,30.781,19.61,27.921,19.112ZM18.5,18.885c-2.846,0-8.538,1.423-8.538,4.269V26H27.038V23.154C27.038,20.308,21.346,18.885,18.5,18.885Z" transform="translate(0 -7.5)" fill="#c8c8c8"/>
</svg>
