<svg xmlns="http://www.w3.org/2000/svg" width="20.638" height="20.638" viewBox="0 0 20.638 20.638">
  <path id="Icon_metro-flow-tree" data-name="Icon metro-flow-tree" d="M22.6,18.082V15.531a3.842,3.842,0,0,0-3.842-3.842h-2.2a1.647,1.647,0,0,1-1.647-1.647V7.491a2.635,2.635,0,1,0-2.2,0v2.551a1.647,1.647,0,0,1-1.647,1.647h-2.2a3.842,3.842,0,0,0-3.842,3.842v2.551a2.635,2.635,0,1,0,2.2,0V15.531a1.647,1.647,0,0,1,1.647-1.647h2.2a3.8,3.8,0,0,0,1.647-.384v4.582a2.635,2.635,0,1,0,2.2,0V13.5a3.8,3.8,0,0,0,1.647.384h2.2A1.647,1.647,0,0,1,20.4,15.531v2.551a2.635,2.635,0,1,0,2.2,0Zm-8.782-14.5A1.52,1.52,0,1,1,12.3,5.1a1.519,1.519,0,0,1,1.519-1.52ZM6.131,21.991a1.52,1.52,0,1,1,1.519-1.52,1.52,1.52,0,0,1-1.519,1.52Zm7.684,0a1.52,1.52,0,1,1,1.519-1.52,1.52,1.52,0,0,1-1.519,1.52Zm7.684,0a1.52,1.52,0,1,1,1.519-1.52,1.52,1.52,0,0,1-1.519,1.52Z" transform="translate(-3.496 -2.468)" fill="#7ac9ff"/>
</svg>
