<svg xmlns="http://www.w3.org/2000/svg" width="18.421" height="18.422" viewBox="0 0 18.421 18.422">
    <defs>
        <style>
            .cls-1{fill:#c8c8c8}
        </style>
    </defs>
    <path id="Icon_material-help-outline" d="M11.29 17.737h1.842v-1.842H11.29zM12.211 3a9.211 9.211 0 1 0 9.211 9.211A9.214 9.214 0 0 0 12.211 3zm0 16.579a7.369 7.369 0 1 1 7.369-7.369 7.378 7.378 0 0 1-7.369 7.369zm0-12.895a3.683 3.683 0 0 0-3.684 3.684h1.842a1.842 1.842 0 1 1 3.684 0c0 1.842-2.763 1.612-2.763 4.605h1.842c0-2.072 2.763-2.3 2.763-4.605a3.683 3.683 0 0 0-3.684-3.684z" class="cls-1" data-name="Icon material-help-outline" transform="translate(-3 -3)"/>
</svg>
