<svg xmlns="http://www.w3.org/2000/svg" width="19.316" height="19.316" viewBox="0 0 19.316 19.316">
    <defs>
        <style>
            .cls-1{fill:none;stroke:#c8c8c8;stroke-linecap:round;stroke-linejoin:round;stroke-width:2px}
        </style>
    </defs>
    <g id="Icon_feather-settings" data-name="Icon feather-settings" transform="translate(-.5 -.5)">
        <path id="Path_946" d="M18.223 15.861a2.361 2.361 0 1 1-2.362-2.361 2.361 2.361 0 0 1 2.362 2.361z" class="cls-1" data-name="Path 946" transform="translate(-5.703 -5.703)"/>
        <path id="Path_947" d="M15.983 12.52a1.3 1.3 0 0 0 .26 1.433l.047.047a1.575 1.575 0 1 1-2.228 2.228l-.047-.047a1.309 1.309 0 0 0-2.22.929v.134a1.574 1.574 0 0 1-3.148 0v-.071a1.3 1.3 0 0 0-.85-1.189 1.3 1.3 0 0 0-1.433.26l-.047.047a1.575 1.575 0 1 1-2.227-2.229l.047-.047a1.309 1.309 0 0 0-.929-2.22h-.134a1.574 1.574 0 0 1 0-3.148h.071A1.3 1.3 0 0 0 4.334 7.8a1.3 1.3 0 0 0-.26-1.433l-.047-.047a1.575 1.575 0 1 1 2.227-2.23l.047.047a1.3 1.3 0 0 0 1.433.26H7.8a1.3 1.3 0 0 0 .787-1.189v-.134a1.574 1.574 0 0 1 3.148 0v.071a1.309 1.309 0 0 0 2.22.929L14 4.027a1.575 1.575 0 1 1 2.228 2.228l-.048.045a1.3 1.3 0 0 0-.26 1.433V7.8a1.3 1.3 0 0 0 1.189.787h.134a1.574 1.574 0 0 1 0 3.148h-.071a1.3 1.3 0 0 0-1.189.787z" class="cls-1" data-name="Path 947"/>
    </g>
</svg>
