<svg xmlns="http://www.w3.org/2000/svg" width="19.488" height="14.616" viewBox="0 0 19.488 14.616">
    <defs>
        <style>
            .cls-1{fill:#c8c8c8}
        </style>
    </defs>
    <path id="Icon_metro-profile" d="M22.594 9.8h-1.362V7.755l-2.813-.043.014 2.088H9.98l.058-2.088-2.755.043v2.088L5.891 9.8A1.392 1.392 0 0 0 4.5 11.192v9.744a1.392 1.392 0 0 0 1.392 1.392h16.7a1.392 1.392 0 0 0 1.392-1.392v-9.744a1.392 1.392 0 0 0-1.39-1.392zm-3.48-1.392h1.392v2.784h-1.392zm-9.048 4.741a1.812 1.812 0 0 1 1.523 2 1.812 1.812 0 0 1-1.523 2 1.812 1.812 0 0 1-1.523-2 1.812 1.812 0 0 1 1.523-2zM7.979 8.408h1.392v2.784H7.979zm-.928 11.1s.165-1.324.54-1.574a5.338 5.338 0 0 1 1.455-.416s.7.748 1 .748 1-.748 1-.748a5.321 5.321 0 0 1 1.455.416c.441.294.551 1.574.551 1.574h-6zm14.151-.66h-6.264v-.7H21.2zm0-1.392h-6.264v-.7H21.2zm0-1.392h-6.264v-.7H21.2zm0-1.392h-6.264v-.7H21.2z" class="cls-1" data-name="Icon metro-profile" transform="translate(-4.499 -7.712)"/>
</svg>
