<svg xmlns="http://www.w3.org/2000/svg" width="19.316" height="19.317" viewBox="0 0 19.316 19.317">
    <defs>
        <style>
            .cls-1{fill:#c8c8c8}
        </style>
    </defs>
    <path id="Icon_material-update" d="M23.818 12.141h-7.276l2.941-3.026a7.554 7.554 0 0 0-10.6-.107 7.378 7.378 0 0 0 0 10.507 7.533 7.533 0 0 0 10.6 0 6.99 6.99 0 0 0 2.189-5.248h2.146a10.025 10.025 0 0 1-2.833 6.75 9.717 9.717 0 0 1-13.651 0 9.487 9.487 0 0 1-.021-13.5 9.645 9.645 0 0 1 13.576 0L23.818 4.5zM14.7 9.866v4.561l3.756 2.232-.773 1.3-4.593-2.726V9.866z" class="cls-1" data-name="Icon material-update" transform="translate(-4.502 -4.5)"/>
</svg>
