<svg xmlns="http://www.w3.org/2000/svg" width="23.321" height="23.321" viewBox="0 0 23.321 23.321">
  <path id="Icon_material-my-location" data-name="Icon material-my-location" d="M13.161,8.92a4.24,4.24,0,1,0,4.24,4.24A4.239,4.239,0,0,0,13.161,8.92Zm9.477,3.18a9.534,9.534,0,0,0-8.417-8.417V1.5H12.1V3.684A9.534,9.534,0,0,0,3.684,12.1H1.5v2.12H3.684A9.534,9.534,0,0,0,12.1,22.637v2.184h2.12V22.637a9.534,9.534,0,0,0,8.417-8.417h2.184V12.1Zm-9.477,8.48a7.42,7.42,0,1,1,7.42-7.42A7.415,7.415,0,0,1,13.161,20.581Z" transform="translate(-1.5 -1.5)" fill="rgba(78,88,169,0.5)"/>
</svg>
