<svg xmlns="http://www.w3.org/2000/svg" width="20" height="20" viewBox="0 0 20 20">
  <g id="Group_10950" data-name="Group 10950" transform="translate(-525 -781)">
    <rect id="Rectangle_364" data-name="Rectangle 364" width="20" height="20" rx="8" transform="translate(525 781)" fill="#41e590"/>
    <path id="Icon_awesome-check" data-name="Icon awesome-check" d="M4.529,14.326.2,9.992a.667.667,0,0,1,0-.943l.943-.943a.667.667,0,0,1,.943,0L5,11.026l6.253-6.253a.667.667,0,0,1,.943,0l.943.943a.667.667,0,0,1,0,.943L5.472,14.326A.667.667,0,0,1,4.529,14.326Z" transform="translate(528 781.423)" fill="#fff"/>
  </g>
</svg>
