<svg xmlns="http://www.w3.org/2000/svg" width="16" height="16" viewBox="0 0 16 16">
  <g id="Group_10889" data-name="Group 10889" transform="translate(8932 451)">
    <rect id="Rectangle_494" data-name="Rectangle 494" width="16" height="16" rx="6" transform="translate(-8932 -451)" fill="#41e590"/>
    <path id="Icon_awesome-check" data-name="Icon awesome-check" d="M3.465,12.035.149,8.719A.51.51,0,0,1,.149,8l.721-.721a.51.51,0,0,1,.721,0L3.825,9.51,8.609,4.727a.51.51,0,0,1,.721,0l.721.721a.51.51,0,0,1,0,.721L4.186,12.035A.51.51,0,0,1,3.465,12.035Z" transform="translate(-8929 -451.577)" fill="#fff"/>
  </g>
</svg>
