<svg xmlns="http://www.w3.org/2000/svg" width="16.625" height="17.734" viewBox="0 0 16.625 17.734">
  <path id="Icon_awesome-star-of-life" data-name="Icon awesome-star-of-life" d="M16.348,11.583,11.64,8.867,16.348,6.15a.554.554,0,0,0,.2-.757l-1.109-1.92a.555.555,0,0,0-.757-.2L9.976,5.987V.554A.554.554,0,0,0,9.422,0H7.2a.554.554,0,0,0-.555.554V5.987L1.941,3.271a.555.555,0,0,0-.757.2L.075,5.393a.554.554,0,0,0,.2.757L4.986,8.867.278,11.583a.554.554,0,0,0-.2.757l1.109,1.92a.555.555,0,0,0,.757.2l4.708-2.716v5.433a.554.554,0,0,0,.555.554H9.422a.554.554,0,0,0,.555-.554V11.746l4.708,2.716a.554.554,0,0,0,.757-.2l1.109-1.92A.554.554,0,0,0,16.348,11.583Z" transform="translate(0)" fill="#7ac9ff"/>
</svg>
