<svg xmlns="http://www.w3.org/2000/svg" width="13" height="13" viewBox="0 0 13 13">
  <g id="Icon_ionic-ios-close-circle-outline" data-name="Icon ionic-ios-close-circle-outline" transform="translate(-3.375 -3.375)">
    <path id="Path_197" data-name="Path 197" d="M19.467,18.433l-2.409-2.409,2.409-2.409a.73.73,0,0,0-1.033-1.033l-2.409,2.409-2.409-2.409a.73.73,0,0,0-1.033,1.033l2.409,2.409-2.409,2.409a.706.706,0,0,0,0,1.033.726.726,0,0,0,1.033,0l2.409-2.409,2.409,2.409a.734.734,0,0,0,1.033,0A.726.726,0,0,0,19.467,18.433Z" transform="translate(-6.149 -6.146)" fill="#ff9495"/>
    <path id="Path_198" data-name="Path 198" d="M9.875,4.25A5.623,5.623,0,1,1,5.9,5.9,5.588,5.588,0,0,1,9.875,4.25m0-.875a6.5,6.5,0,1,0,6.5,6.5,6.5,6.5,0,0,0-6.5-6.5Z" fill="#ff9495"/>
  </g>
</svg>
