<svg xmlns="http://www.w3.org/2000/svg" width="14.154" height="14.155" viewBox="0 0 14.154 14.155">
  <path id="Icon_material-update" data-name="Icon material-update" d="M18.656,10.1H13.324l2.155-2.218A5.535,5.535,0,0,0,7.709,7.8a5.407,5.407,0,0,0,0,7.7,5.52,5.52,0,0,0,7.77,0,5.122,5.122,0,0,0,1.6-3.846h1.573A7.346,7.346,0,0,1,16.58,16.6a7.12,7.12,0,0,1-10,0A6.952,6.952,0,0,1,6.561,6.71a7.068,7.068,0,0,1,9.948,0L18.656,4.5ZM11.972,8.432v3.342l2.752,1.636-.566.952-3.366-2V8.432Z" transform="translate(-4.502 -4.5)" fill="#b7b1f7"/>
</svg>
