<svg xmlns="http://www.w3.org/2000/svg" width="20.675" height="20.675" viewBox="0 0 20.675 20.675">
  <path id="Icon_awesome-exclamation-circle" data-name="Icon awesome-exclamation-circle" d="M21.238,10.9A10.338,10.338,0,1,1,10.9.563,10.337,10.337,0,0,1,21.238,10.9ZM10.9,12.984A1.917,1.917,0,1,0,12.818,14.9,1.917,1.917,0,0,0,10.9,12.984ZM9.08,6.092l.309,5.669a.5.5,0,0,0,.5.473h2.024a.5.5,0,0,0,.5-.473l.309-5.669a.5.5,0,0,0-.5-.527H9.579A.5.5,0,0,0,9.08,6.092Z" transform="translate(-0.563 -0.563)" fill="#c8c8c8"/>
</svg>
