<svg xmlns="http://www.w3.org/2000/svg" width="18.738" height="23.454" viewBox="0 0 18.738 23.454">
  <g id="Icon_ionic-ios-notifications-outline" data-name="Icon ionic-ios-notifications-outline" transform="translate(-6.775 -3.93)">
    <path id="Path_736" data-name="Path 736" d="M19.427,28.336a.759.759,0,0,0-.744.6,1.469,1.469,0,0,1-.293.639,1.108,1.108,0,0,1-.944.346,1.126,1.126,0,0,1-.944-.346,1.469,1.469,0,0,1-.293-.639.759.759,0,0,0-.744-.6h0a.764.764,0,0,0-.744.932,2.619,2.619,0,0,0,2.726,2.175,2.614,2.614,0,0,0,2.726-2.175.767.767,0,0,0-.744-.932Z" transform="translate(-1.318 -4.059)" fill="#c8c8c8"/>
    <path id="Path_737" data-name="Path 737" d="M25.278,21.3c-.9-1.19-2.679-1.888-2.679-7.216,0-5.469-2.415-7.667-4.666-8.2-.211-.053-.363-.123-.363-.346v-.17A1.438,1.438,0,0,0,16.163,3.93h-.035a1.438,1.438,0,0,0-1.407,1.442v.17c0,.217-.152.293-.363.346-2.257.533-4.666,2.726-4.666,8.2,0,5.329-1.776,6.02-2.679,7.216a1.164,1.164,0,0,0,.932,1.864H24.363A1.164,1.164,0,0,0,25.278,21.3Zm-2.286.34H9.322a.257.257,0,0,1-.193-.428,7.1,7.1,0,0,0,1.231-1.958,13.284,13.284,0,0,0,.838-5.17A8.99,8.99,0,0,1,12.423,9a3.761,3.761,0,0,1,2.269-1.618,2.054,2.054,0,0,0,1.09-.616.464.464,0,0,1,.7-.012,2.124,2.124,0,0,0,1.1.627A3.761,3.761,0,0,1,19.85,9a8.99,8.99,0,0,1,1.225,5.088,13.284,13.284,0,0,0,.838,5.17,7.183,7.183,0,0,0,1.26,1.987A.242.242,0,0,1,22.992,21.639Z" fill="#c8c8c8"/>
  </g>
</svg>
