<svg xmlns="http://www.w3.org/2000/svg" width="27.383" height="21.906" viewBox="0 0 27.383 21.906">
  <path id="Icon_awesome-tags" data-name="Icon awesome-tags" d="M21.3,9.667,12.239.6A2.054,2.054,0,0,0,10.787,0H2.054A2.054,2.054,0,0,0,0,2.054v8.733a2.054,2.054,0,0,0,.6,1.452L9.667,21.3a2.054,2.054,0,0,0,2.9,0L21.3,12.572a2.054,2.054,0,0,0,0-2.9ZM4.792,6.846A2.054,2.054,0,1,1,6.846,4.792,2.054,2.054,0,0,1,4.792,6.846Zm21.99,5.726L18.048,21.3a2.054,2.054,0,0,1-2.9,0l-.015-.015,7.447-7.447a3.851,3.851,0,0,0,0-5.446L14.179,0h2.085a2.054,2.054,0,0,1,1.452.6l9.066,9.066a2.054,2.054,0,0,1,0,2.9Z" fill="#c8c8c8"/>
</svg>
