<svg xmlns="http://www.w3.org/2000/svg" width="20" height="20" viewBox="0 0 20 20">
  <path id="Icon_awesome-font" data-name="Icon awesome-font" d="M19.286,19.393H18.241L12.405,3.218a1.429,1.429,0,0,0-1.353-.968H8.947a1.429,1.429,0,0,0-1.353.969L1.759,19.393H.714A.714.714,0,0,0,0,20.107v1.429a.714.714,0,0,0,.714.714H6.429a.714.714,0,0,0,.714-.714V20.107a.714.714,0,0,0-.714-.714H5.554l1.04-2.857h6.811l1.04,2.857h-.874a.714.714,0,0,0-.714.714v1.429a.714.714,0,0,0,.714.714h5.714A.714.714,0,0,0,20,21.536V20.107A.714.714,0,0,0,19.286,19.393ZM7.9,12.964,10,7.183l2.1,5.781Z" transform="translate(0 -2.25)" fill="#656565"/>
</svg>
