<svg xmlns="http://www.w3.org/2000/svg" width="20" height="20" viewBox="0 0 20 20">
  <path id="Icon_metro-attachment" data-name="Icon metro-attachment" d="M17.683,8.316l-1.45-1.268L8.983,13.39a2.46,2.46,0,0,0,0,3.806,3.4,3.4,0,0,0,4.35,0l8.7-7.611a4.1,4.1,0,0,0,0-6.342,5.657,5.657,0,0,0-7.25,0L5.649,11.234l-.02.017a5.717,5.717,0,0,0,0,8.846,7.892,7.892,0,0,0,10.111,0l.018-.017h0l6.235-5.455-1.451-1.268-6.235,5.454-.019.016a5.635,5.635,0,0,1-7.212,0,4.082,4.082,0,0,1,0-6.308L7.1,12.5h0L16.233,4.51a3.4,3.4,0,0,1,4.35,0,2.463,2.463,0,0,1,0,3.805l-8.7,7.611a1.133,1.133,0,0,1-1.45,0,.821.821,0,0,1,0-1.268l7.25-6.343Z" transform="translate(-3.535 -1.928)" fill="#656565"/>
</svg>
