<svg xmlns="http://www.w3.org/2000/svg" width="44" height="44" viewBox="0 0 44 44">
  <g id="Group_10506" data-name="Group 10506" transform="translate(-1512 -253)">
    <rect id="Rectangle_149" data-name="Rectangle 149" width="44" height="44" rx="12" transform="translate(1512 253)" fill="#d0cfec"/>
    <path id="Icon_simple-webcomponents-dot-org" data-name="Icon simple-webcomponents-dot-org" d="M12.54,3.338l-.011.017H6L0,13.765,6,24.173H19.687l.043.064,2.281-3.993.554-.955h-.009l.009-.015-.669-.8h.957l.006-.011.009.011,2.787-4.692L22.868,9.088l0,.005-.012-.02h-1.01l.675-.817L19.73,3.372l-.006.011L19.7,3.34H12.54ZM9.734,8.254h6.616l-.566.817H15.76l2.564,4.292h.935l-.3.351.382.465H18.322l-2.564,4.292h.029l.559.817H9.7L6.5,13.763,9.733,8.252Z" transform="translate(1521.787 261.228)" fill="#fff"/>
  </g>
</svg>
