<svg xmlns="http://www.w3.org/2000/svg" width="21.924" height="26.796" viewBox="0 0 21.924 26.796">
  <path id="Icon_material-content-paste" data-name="Icon material-content-paste" d="M23.988,2.436H18.9a3.64,3.64,0,0,0-6.87,0H6.936A2.443,2.443,0,0,0,4.5,4.872V24.36A2.443,2.443,0,0,0,6.936,26.8H23.988a2.443,2.443,0,0,0,2.436-2.436V4.872A2.443,2.443,0,0,0,23.988,2.436Zm-8.526,0a1.218,1.218,0,1,1-1.218,1.218A1.222,1.222,0,0,1,15.462,2.436ZM23.988,24.36H6.936V4.872H9.372V8.526h12.18V4.872h2.436Z" transform="translate(-4.5)" fill="rgba(78,88,169,0.5)"/>
</svg>
