<svg xmlns="http://www.w3.org/2000/svg" width="4.68" height="5.46" viewBox="0 0 4.68 5.46">
  <path id="Icon_metro-file-pdf" data-name="Icon metro-file-pdf" d="M7.043,3.361a.811.811,0,0,1,.207.5v3.51a.291.291,0,0,1-.292.292H2.863a.291.291,0,0,1-.292-.292V2.5A.291.291,0,0,1,2.863,2.2h2.73a.811.811,0,0,1,.5.207ZM5.691,2.618V3.763H6.836a.333.333,0,0,0-.067-.125l-.954-.954a.333.333,0,0,0-.125-.067Zm1.17,4.656V4.153H5.593A.291.291,0,0,1,5.3,3.861V2.593H2.961v4.68h3.9ZM5.295,5.467a2.318,2.318,0,0,0,.256.171,3.023,3.023,0,0,1,.356-.021q.448,0,.539.149a.147.147,0,0,1,.006.158.009.009,0,0,1,0,.006l-.006.006v0q-.018.116-.216.116a1.257,1.257,0,0,1-.35-.061,2.222,2.222,0,0,1-.4-.161,5.486,5.486,0,0,0-1.194.253q-.466.8-.737.8a.177.177,0,0,1-.085-.021L3.39,6.826,3.372,6.81a.126.126,0,0,1-.018-.11.662.662,0,0,1,.171-.279,1.472,1.472,0,0,1,.4-.294A.044.044,0,0,1,4,6.146.018.018,0,0,1,4,6.158q.158-.259.326-.6a4.65,4.65,0,0,0,.317-.8,2.463,2.463,0,0,1-.093-.486,1.185,1.185,0,0,1,.02-.388q.034-.122.128-.122h.067a.128.128,0,0,1,.107.046.243.243,0,0,1,.027.207.066.066,0,0,1-.012.024.079.079,0,0,1,0,.024v.091a3.99,3.99,0,0,1-.043.585,1.541,1.541,0,0,0,.445.725ZM3.54,6.719a1.345,1.345,0,0,0,.417-.481,1.737,1.737,0,0,0-.267.256A1.013,1.013,0,0,0,3.54,6.719Zm1.213-2.8a.906.906,0,0,0-.006.4q0-.021.021-.134,0-.009.021-.131A.069.069,0,0,1,4.8,4.029a.009.009,0,0,1,0-.006.006.006,0,0,0,0,0,.006.006,0,0,1,0,0,.175.175,0,0,0-.04-.11.009.009,0,0,1,0,.006v.006ZM4.374,5.93a4.469,4.469,0,0,1,.865-.247L5.2,5.654a.546.546,0,0,1-.049-.041,1.614,1.614,0,0,1-.387-.536,4.072,4.072,0,0,1-.253.6q-.091.171-.137.253Zm1.968-.049a.729.729,0,0,0-.427-.073,1.152,1.152,0,0,0,.378.085.3.3,0,0,0,.055,0s0-.005-.006-.009Z" transform="translate(-2.571 -2.203)" fill="#fff"/>
</svg>
