<svg xmlns="http://www.w3.org/2000/svg" width="25.659" height="25.657" viewBox="0 0 25.659 25.657">
  <path id="Icon_ionic-ios-color-palette" data-name="Icon ionic-ios-color-palette" d="M28.961,23.469a3.12,3.12,0,0,0-1.644-.6,2.446,2.446,0,0,1-1.51-.668,1.852,1.852,0,0,1,0-2.927l2.024-1.8a6.505,6.505,0,0,0,0-9.969A12.846,12.846,0,0,0,19.293,4.5,16.153,16.153,0,0,0,8.683,8.516a11.707,11.707,0,0,0,0,17.94,15.643,15.643,0,0,0,10.216,3.7h.114a15.037,15.037,0,0,0,9.942-3.5A2.256,2.256,0,0,0,28.961,23.469ZM8.242,14.656a2.138,2.138,0,1,1,2.138,2.138A2.136,2.136,0,0,1,8.242,14.656Zm2.673,8.419a2.138,2.138,0,1,1,2.138-2.138A2.136,2.136,0,0,1,10.914,23.075ZM15.19,12.317a2.138,2.138,0,1,1,2.138-2.138A2.136,2.136,0,0,1,15.19,12.317ZM20,26.95a3.207,3.207,0,1,1,3.207-3.207A3.208,3.208,0,0,1,20,26.95Zm1.6-13.9a2.138,2.138,0,1,1,2.138-2.138A2.136,2.136,0,0,1,21.6,13.052Z" transform="translate(-4.498 -4.5)" fill="#41e590"/>
</svg>
