<svg xmlns="http://www.w3.org/2000/svg" width="13.949" height="13.95" viewBox="0 0 13.949 13.95">
  <path id="Icon_ionic-ios-checkbox" data-name="Icon ionic-ios-checkbox" d="M17.287,4.5H5.662A1.161,1.161,0,0,0,4.5,5.662V17.287A1.161,1.161,0,0,0,5.662,18.45H17.287a1.161,1.161,0,0,0,1.162-1.162V5.662A1.161,1.161,0,0,0,17.287,4.5ZM15.38,9.386l-4.857,4.879h0a.656.656,0,0,1-.421.2.636.636,0,0,1-.425-.207L7.639,12.223a.145.145,0,0,1,0-.207l.647-.647a.14.14,0,0,1,.2,0L10.1,12.982l4.432-4.465a.143.143,0,0,1,.1-.044h0a.132.132,0,0,1,.1.044l.636.658A.143.143,0,0,1,15.38,9.386Z" transform="translate(-4.5 -4.5)" fill="#41e590"/>
</svg>
