<svg xmlns="http://www.w3.org/2000/svg" width="17.154" height="17.149" viewBox="0 0 17.154 17.149">
  <g id="Icon_ionic-ios-apps" data-name="Icon ionic-ios-apps" transform="translate(-4.492 -4.497)">
    <path id="Path_897" data-name="Path 897" d="M21.059,7.785,14.387,4.744a3.613,3.613,0,0,0-2.63,0L5.089,7.785c-.786.357-.786.942,0,1.3L11.7,12.1a3.8,3.8,0,0,0,2.751,0l6.609-3.014C21.845,8.728,21.845,8.143,21.059,7.785Z" transform="translate(-0.003 0)" fill="#4e58a9"/>
    <g id="Group_11371" data-name="Group 11371" transform="translate(4.493 11.723)">
      <path id="Path_898" data-name="Path 898" d="M11.7,25.177,7.242,23.145a.725.725,0,0,0-.594,0l-1.559.71c-.786.357-.786.942,0,1.3L11.7,28.169a3.8,3.8,0,0,0,2.751,0l6.609-3.014c.786-.357.786-.942,0-1.3l-1.559-.71a.725.725,0,0,0-.594,0L14.45,25.177A3.8,3.8,0,0,1,11.7,25.177Z" transform="translate(-4.496 -18.504)" fill="#4e58a9"/>
      <path id="Path_899" data-name="Path 899" d="M21.056,16.582l-1.416-.643a.714.714,0,0,0-.589,0l-4.823,2.184a3.942,3.942,0,0,1-2.318,0L7.088,15.938a.714.714,0,0,0-.589,0l-1.416.643c-.786.357-.786.942,0,1.3L11.692,20.9a3.8,3.8,0,0,0,2.751,0l6.609-3.014C21.842,17.524,21.842,16.939,21.056,16.582Z" transform="translate(-4.493 -15.875)" fill="#4e58a9"/>
    </g>
  </g>
</svg>
