<svg xmlns="http://www.w3.org/2000/svg" width="25" height="17.307" viewBox="0 0 25 17.307">
    <defs>
        <style>
            .cls-1{fill:rgba(78,88,169,.7)}.cls-2{fill:#8289c2;stroke:#fff}.cls-3{fill:#fff}.cls-4{stroke:none}.cls-5{fill:none}
        </style>
    </defs>
    <g id="Group_11260" data-name="Group 11260" transform="translate(0 -.404)">
        <path id="Subtraction_8" d="M22 17.307H3a3 3 0 0 1-3-3v-2.769a2.888 2.888 0 0 0 2.885-2.884A2.888 2.888 0 0 0 0 5.769V3a3 3 0 0 1 3-3h19a3 3 0 0 1 3 3v2.769a2.884 2.884 0 1 0 0 5.769v2.769a3 3 0 0 1-3 3z" class="cls-1" data-name="Subtraction 8" transform="translate(0 .404)"/>
        <g id="Group_11259" data-name="Group 11259" transform="translate(7.031 5.932)">
            <g id="Rectangle_619" class="cls-2" data-name="Rectangle 619">
                <rect width="10.937" height="6.25" class="cls-4" rx="2"/>
                <rect width="9.937" height="5.25" x=".5" y=".5" class="cls-5" rx="1.5"/>
            </g>
            <g id="Group_11258" data-name="Group 11258" transform="translate(3.125 2.734)">
                <circle id="Ellipse_3379" cx=".391" cy=".391" r=".391" class="cls-3" data-name="Ellipse 3379"/>
                <circle id="Ellipse_3380" cx=".391" cy=".391" r=".391" class="cls-3" data-name="Ellipse 3380" transform="translate(1.953)"/>
                <circle id="Ellipse_3381" cx=".391" cy=".391" r=".391" class="cls-3" data-name="Ellipse 3381" transform="translate(3.906)"/>
            </g>
        </g>
    </g>
</svg>
