<svg xmlns="http://www.w3.org/2000/svg" id="Group_11332" width="37" height="37" data-name="Group 11332" viewBox="0 0 37 37">
    <defs>
        <style>
            .cls-1{fill:#fff;stroke:#4e58a9;stroke-dasharray:2}.cls-2{fill:#4e58a9}.cls-3{stroke:none}.cls-4{fill:none}
        </style>
    </defs>
    <g id="Rectangle_642" class="cls-1" data-name="Rectangle 642">
        <rect width="37" height="37" class="cls-3" rx="18.5"/>
        <rect width="36" height="36" x=".5" y=".5" class="cls-4" rx="18"/>
    </g>
    <path id="Icon_awesome-chevron-down" d="M6.351 16.311L.606 10.565a.71.71 0 0 1 0-1l.67-.67a.71.71 0 0 1 1 0l4.575 4.554 4.577-4.559a.71.71 0 0 1 1 0l.67.67a.71.71 0 0 1 0 1l-5.743 5.751a.71.71 0 0 1-1.004 0z" class="cls-2" data-name="Icon awesome-chevron-down" transform="translate(11.337 7.182)"/>
</svg>
