<svg xmlns="http://www.w3.org/2000/svg" width="37.091" height="37.091" viewBox="0 0 37.091 37.091">
    <defs>
        <style>
            .cls-1{fill:#89b1b2}.cls-2{fill:#ffb300}
        </style>
    </defs>
    <g id="Group_11625" data-name="Group 11625" transform="translate(-82.642 -11.062)">
        <path id="Path_922" d="M18.546 0A18.546 18.546 0 1 1 0 18.546 18.546 18.546 0 0 1 18.546 0z" class="cls-1" data-name="Path 922" transform="translate(82.642 11.062)"/>
        <path id="Icon_material-notifications-none" d="M15.587 27.119a2.4 2.4 0 0 0 2.4-2.4H13.19a2.4 2.4 0 0 0 2.397 2.4zm7.19-7.19v-5.993c0-3.679-1.953-6.759-5.393-7.574v-.814a1.8 1.8 0 1 0-3.6 0v.815c-3.422.814-5.384 3.882-5.384 7.573v5.992L6 22.325v1.2h19.174v-1.2zm-2.4 1.2h-9.583v-7.19c0-2.972 1.81-5.393 4.794-5.393s4.794 2.421 4.794 5.393z" class="cls-2" data-name="Icon material-notifications-none" transform="translate(85.405 14.063)"/>
    </g>
</svg>
