<svg xmlns="http://www.w3.org/2000/svg" width="19" height="25" viewBox="0 0 19 25">
    <defs>
        <style>
            .cls-1{fill:rgba(255,197,12,.7)}.cls-2{fill:none;stroke:#fff;stroke-linecap:round;stroke-width:1.5px}.cls-3{fill:#fff}
        </style>
    </defs>
    <g id="Group_11374" data-name="Group 11374" transform="translate(-445 -849.438)">
        <g id="Icon_ionic-ios-document" data-name="Icon ionic-ios-document" transform="translate(445 849.438)">
            <path id="Path_894" d="M21.8 10.187h5.743a.313.313 0 0 0 .316-.316 1.868 1.868 0 0 0-.675-1.445l-4.815-4.014a2.027 2.027 0 0 0-1.3-.467.466.466 0 0 0-.467.467v4.575a1.2 1.2 0 0 0 1.198 1.2z" class="cls-1" data-name="Path 894" transform="translate(-8.86 -3.938)"/>
            <path id="Path_895" d="M17.5 8.938v-5H9.313a2.006 2.006 0 0 0-2 2v21a2.006 2.006 0 0 0 2 2h15a2.006 2.006 0 0 0 2-2V11.75h-6A2.817 2.817 0 0 1 17.5 8.938z" class="cls-1" data-name="Path 895" transform="translate(-7.313 -3.938)"/>
        </g>
        <path id="Line_110" d="M0 0h13.755" class="cls-2" data-name="Line 110" transform="translate(447.735 868.236)"/>
        <path id="Line_111" d="M0 0h13.755" class="cls-2" data-name="Line 111" transform="translate(447.735 870.58)"/>
        <path id="Line_112" d="M0 0h1.226" class="cls-2" data-name="Line 112" transform="translate(460.263 863.549)"/>
        <path id="Line_113" d="M0 0h1.226" class="cls-2" data-name="Line 113" transform="translate(460.263 865.893)"/>
        <path id="Line_114" d="M0 0h1.226" class="cls-2" data-name="Line 114" transform="translate(460.263 861.205)"/>
        <path id="Icon_ionic-ios-settings" d="M2.618 1.427a.367.367 0 0 1 .236-.343A1.455 1.455 0 0 0 2.677.66a.372.372 0 0 1-.149.032.366.366 0 0 1-.335-.516A1.451 1.451 0 0 0 1.769 0a.368.368 0 0 1-.343.236A.368.368 0 0 1 1.084 0 1.455 1.455 0 0 0 .66.176a.366.366 0 0 1-.335.516.36.36 0 0 1-.15-.032A1.488 1.488 0 0 0 0 1.085a.367.367 0 0 1 .236.343A.368.368 0 0 1 0 1.77a1.455 1.455 0 0 0 .176.424.367.367 0 0 1 .484.484 1.464 1.464 0 0 0 .424.176.366.366 0 0 1 .684 0 1.455 1.455 0 0 0 .424-.176.367.367 0 0 1 .484-.484 1.464 1.464 0 0 0 .176-.424.369.369 0 0 1-.234-.343zm-1.185.593a.594.594 0 1 1 .594-.594.594.594 0 0 1-.594.594z" class="cls-3" data-name="Icon ionic-ios-settings" transform="rotate(8 -5879.19 3629.472)"/>
        <path id="Icon_ionic-ios-settings-2" d="M3.795 2.068a.532.532 0 0 1 .341-.5 2.11 2.11 0 0 0-.255-.611.539.539 0 0 1-.216.043.531.531 0 0 1-.486-.745A2.1 2.1 0 0 0 2.565 0a.533.533 0 0 1-.5.341A.533.533 0 0 1 1.572 0a2.11 2.11 0 0 0-.615.255A.531.531 0 0 1 .471 1 .522.522 0 0 1 .254.957 2.156 2.156 0 0 0 0 1.573a.532.532 0 0 1 .341.5.533.533 0 0 1-.34.5 2.11 2.11 0 0 0 .255.615.531.531 0 0 1 .7.7 2.122 2.122 0 0 0 .615.255.531.531 0 0 1 .991 0 2.11 2.11 0 0 0 .615-.255.532.532 0 0 1 .7-.7 2.122 2.122 0 0 0 .255-.615.535.535 0 0 1-.337-.505zm-1.717.861a.862.862 0 1 1 .862-.862.861.861 0 0 1-.862.862z" class="cls-3" data-name="Icon ionic-ios-settings" transform="rotate(-3 16601.852 -8117.55)"/>
        <path id="Icon_ionic-ios-settings-3" d="M2.331 1.27a.327.327 0 0 1 .21-.305 1.3 1.3 0 0 0-.157-.377.331.331 0 0 1-.133.028.326.326 0 0 1-.3-.459A1.292 1.292 0 0 0 1.575 0a.327.327 0 0 1-.305.21A.327.327 0 0 1 .965 0a1.3 1.3 0 0 0-.377.157.326.326 0 0 1-.3.459.321.321 0 0 1-.132-.028A1.325 1.325 0 0 0 0 .966a.327.327 0 0 1 .21.305.327.327 0 0 1-.21.305 1.3 1.3 0 0 0 .157.378.326.326 0 0 1 .431.431 1.3 1.3 0 0 0 .378.157.326.326 0 0 1 .609 0 1.3 1.3 0 0 0 .378-.157.327.327 0 0 1 .431-.431 1.3 1.3 0 0 0 .157-.378.328.328 0 0 1-.21-.306zm-1.055.53a.529.529 0 1 1 .529-.529.529.529 0 0 1-.529.529z" class="cls-3" data-name="Icon ionic-ios-settings" transform="rotate(24 -1784.849 1491.23)"/>
    </g>
</svg>
