<svg xmlns="http://www.w3.org/2000/svg" width="18.421" height="18.421" viewBox="0 0 18.421 18.421">
  <path id="Icon_material-help-outline" data-name="Icon material-help-outline" d="M11.29,17.737h1.842V15.895H11.29ZM12.211,3a9.211,9.211,0,1,0,9.211,9.211A9.214,9.214,0,0,0,12.211,3Zm0,16.579a7.369,7.369,0,1,1,7.369-7.369A7.378,7.378,0,0,1,12.211,19.579Zm0-12.895a3.683,3.683,0,0,0-3.684,3.684h1.842a1.842,1.842,0,1,1,3.684,0c0,1.842-2.763,1.612-2.763,4.605h1.842c0-2.072,2.763-2.3,2.763-4.605A3.683,3.683,0,0,0,12.211,6.684Z" transform="translate(-3 -3)" fill="#4e58a9"/>
</svg>
