<svg xmlns="http://www.w3.org/2000/svg" width="17.25" height="17.25" viewBox="0 0 17.25 17.25">
    <defs>
        <style>
            .cls-1{fill:#ffc50c}
        </style>
    </defs>
    <path id="Icon_awesome-phone-alt" d="M16.758 12.19l-3.773-1.617a.809.809 0 0 0-.943.232l-1.672 2.042a12.488 12.488 0 0 1-5.97-5.97l2.042-1.671a.807.807 0 0 0 .232-.943L5.057.489a.814.814 0 0 0-.926-.468L.627.829A.809.809 0 0 0 0 1.617 15.631 15.631 0 0 0 15.633 17.25a.809.809 0 0 0 .788-.627l.809-3.5a.818.818 0 0 0-.472-.93z" class="cls-1" data-name="Icon awesome-phone-alt"/>
</svg>
