<svg xmlns="http://www.w3.org/2000/svg" width="20.001" height="20.038" viewBox="0 0 20.001 20.038">
    <defs>
        <style>
            .cls-1{fill:none;stroke:#d0cfec;stroke-linecap:round;stroke-linejoin:round;stroke-width:2px}
        </style>
    </defs>
    <path id="Icon_feather-phone" d="M21.167 16.5v2.715a1.81 1.81 0 0 1-1.973 1.81 17.911 17.911 0 0 1-7.81-2.778 17.648 17.648 0 0 1-5.43-5.43 17.911 17.911 0 0 1-2.779-7.844A1.81 1.81 0 0 1 4.976 3h2.715A1.81 1.81 0 0 1 9.5 4.557a11.621 11.621 0 0 0 .635 2.543 1.81 1.81 0 0 1-.407 1.91l-1.15 1.149a14.481 14.481 0 0 0 5.43 5.43l1.149-1.149a1.81 1.81 0 0 1 1.91-.407 11.621 11.621 0 0 0 2.543.634 1.81 1.81 0 0 1 1.557 1.833z" class="cls-1" data-name="Icon feather-phone" transform="translate(-2.167 -2)"/>
</svg>
