<svg xmlns="http://www.w3.org/2000/svg" width="17.254" height="17.254" viewBox="0 0 17.254 17.254">
    <defs>
        <style>
            .cls-1{fill:#53d7e3}
        </style>
    </defs>
    <path id="Icon_awesome-globe-asia" d="M8.627.563a8.627 8.627 0 1 0 8.627 8.627A8.627 8.627 0 0 0 8.627.563zm-.395 8.356a.557.557 0 0 1-.477.27h-.011a.557.557 0 0 0-.393.163l-.2.2a.278.278 0 0 0 0 .393l.2.2a.557.557 0 0 1 .163.393v.326a.556.556 0 0 1-.557.557h-.212a.556.556 0 0 1-.5-.308L5.46 9.535a.278.278 0 0 0-.446-.072l-.677.677a.557.557 0 0 1-.393.163H1.767a6.944 6.944 0 0 1 9-7.728L9.026 3.914a.278.278 0 0 0 .03.48l.377.188a.556.556 0 0 1 .308.5V7.8a.278.278 0 0 1-.278.278h-.108a.278.278 0 0 1-.249-.154.154.154 0 0 0-.27-.01zm5.96 3.833a.557.557 0 0 1-.163.393l-.333.333a.557.557 0 0 1-.393.163h-.527a.557.557 0 0 1-.393-.163l-.453-.453a.931.931 0 0 0-.884-.245l-.74.185a.552.552 0 0 1-.135.017h-.36a.557.557 0 0 1-.393-.163L9 12.406a.279.279 0 0 1-.081-.2v-.355A.279.279 0 0 1 9.1 11.6l1.368-.548a.933.933 0 0 0 .194-.106l.825-.588a.278.278 0 0 1 .161-.051h.421a.278.278 0 0 1 .257.171l.186.447a.139.139 0 0 0 .128.086h.132a.139.139 0 0 0 .134-.1l.146-.5a.139.139 0 0 1 .134-.1h.211a.139.139 0 0 1 .139.139v.45a.279.279 0 0 0 .081.2l.414.414a.557.557 0 0 1 .163.393v.856z" class="cls-1" data-name="Icon awesome-globe-asia" transform="translate(0 -.563)"/>
</svg>
