<svg xmlns="http://www.w3.org/2000/svg" width="17.098" height="19.54" viewBox="0 0 17.098 19.54">
    <defs>
        <style>
            .cls-1{fill:#d0cfec}
        </style>
    </defs>
    <path id="Icon_awesome-address-book" d="M16.64 6.106a.459.459 0 0 0 .458-.458V4.122a.459.459 0 0 0-.458-.458h-.763V1.832A1.832 1.832 0 0 0 14.044 0H1.832A1.832 1.832 0 0 0 0 1.832v15.876a1.832 1.832 0 0 0 1.832 1.832h12.212a1.832 1.832 0 0 0 1.832-1.832v-1.832h.763a.459.459 0 0 0 .458-.458v-1.526a.459.459 0 0 0-.458-.458h-.763v-2.443h.763a.459.459 0 0 0 .458-.458V9.007a.459.459 0 0 0-.458-.458h-.763V6.106zm-8.7-1.221A2.443 2.443 0 1 1 5.5 7.328a2.445 2.445 0 0 1 2.438-2.443zm4.274 9.037a.8.8 0 0 1-.855.733h-6.84a.8.8 0 0 1-.855-.733v-.732a2.4 2.4 0 0 1 2.565-2.2h.191a3.931 3.931 0 0 0 3.038 0h.191a2.4 2.4 0 0 1 2.565 2.2z" class="cls-1" data-name="Icon awesome-address-book"/>
</svg>
