<svg xmlns="http://www.w3.org/2000/svg" width="15.264" height="15.264" viewBox="0 0 15.264 15.264">
    <defs>
        <style>
            .cls-1{fill:#656565}
        </style>
    </defs>
    <path id="Icon_awesome-at" d="M8.194.562a7.632 7.632 0 1 0 4.167 14.026.74.74 0 0 0 .171-1.089l-.313-.383a.737.737 0 0 0-.965-.158 5.662 5.662 0 1 1-3.06-10.426c3.082 0 5.662 1.773 5.662 4.924 0 1.194-.649 2.454-1.79 2.576-.534-.014-.52-.4-.415-.924l.721-3.727a.739.739 0 0 0-.725-.879h-1.383a.416.416 0 0 0-.413.369A2.366 2.366 0 0 0 8 4.2a4.39 4.39 0 0 0-4.237 4.664c0 2.01 1.132 3.258 2.954 3.258a3.114 3.114 0 0 0 2.308-1.18c.293 1.05 1.25 1.049 2.176 1.049 3.351 0 4.625-2.2 4.625-4.536 0-4.195-3.384-6.893-7.632-6.893zm-.667 9.369a1.1 1.1 0 0 1-1.11-1.255 2.056 2.056 0 0 1 1.8-2.238c.686 0 1.1.469 1.1 1.255a2.124 2.124 0 0 1-1.79 2.238z" class="cls-1" data-name="Icon awesome-at" transform="translate(-.563 -.563)"/>
</svg>
