<svg xmlns="http://www.w3.org/2000/svg" width="20.921" height="17.703" viewBox="0 0 20.921 17.703">
    <defs>
        <style>
            .cls-1{fill:#c8c8c8}
        </style>
    </defs>
    <g id="Icon_ionic-ios-options" data-name="Icon ionic-ios-options" transform="translate(-3.375 -5.625)">
        <path id="Path_727" d="M16.013 25.957a2.015 2.015 0 0 1 3.691 0h3.787a.807.807 0 0 1 .8.8.807.807 0 0 1-.8.8H19.7a2.015 2.015 0 0 1-3.691 0H4.18a.807.807 0 0 1-.8-.8.807.807 0 0 1 .8-.8z" class="cls-1" data-name="Path 727" transform="translate(0 -5.446)"/>
        <path id="Path_728" d="M7.967 16.394a2.015 2.015 0 0 1 3.691 0h11.834a.807.807 0 0 1 .8.8.807.807 0 0 1-.8.8H11.658a2.015 2.015 0 0 1-3.691 0H4.18a.807.807 0 0 1-.8-.8.807.807 0 0 1 .8-.8z" class="cls-1" data-name="Path 728" transform="translate(0 -2.723)"/>
        <path id="Path_729" d="M16.013 6.832a2.015 2.015 0 0 1 3.691 0h3.787a.807.807 0 0 1 .8.8.807.807 0 0 1-.8.8H19.7a2.015 2.015 0 0 1-3.691 0H4.18a.807.807 0 0 1-.8-.8.807.807 0 0 1 .8-.8z" class="cls-1" data-name="Path 729"/>
    </g>
</svg>
