<svg xmlns="http://www.w3.org/2000/svg" width="12.851" height="14.687" viewBox="0 0 12.851 14.687">
    <defs>
        <style>
            .cls-1{fill:#d0cfec}
        </style>
    </defs>
    <path id="Icon_metro-attachment" d="M12.626 6.619l-.932-.931-4.659 4.657a1.976 1.976 0 0 0 2.8 2.795l5.591-5.59a3.294 3.294 0 0 0-4.658-4.658l-5.875 5.87-.013.012a4.594 4.594 0 0 0 6.5 6.5l.012-.013 4.008-4.009-.932-.931-4.006 4.005-.012.012a3.276 3.276 0 1 1-4.638-4.632l.013-.012 5.87-5.869a1.976 1.976 0 1 1 2.8 2.795L8.9 12.208a.659.659 0 1 1-.932-.931l4.659-4.658z" class="cls-1" data-name="Icon metro-attachment" transform="translate(-3.535 -1.928)"/>
</svg>
