<svg xmlns="http://www.w3.org/2000/svg" width="20.936" height="16.749" viewBox="0 0 20.936 16.749">
    <defs>
        <style>
            .cls-1{fill:#c8c8c8}
        </style>
    </defs>
    <path id="Icon_awesome-tags" d="M16.289 7.391L9.358.46A1.57 1.57 0 0 0 8.247 0H1.57A1.57 1.57 0 0 0 0 1.57v6.677a1.57 1.57 0 0 0 .46 1.11l6.931 6.931a1.57 1.57 0 0 0 2.221 0l6.677-6.677a1.57 1.57 0 0 0 0-2.221zM3.664 5.234a1.57 1.57 0 1 1 1.57-1.57 1.57 1.57 0 0 1-1.57 1.57zm16.812 4.378L13.8 16.289a1.57 1.57 0 0 1-2.221 0l-.012-.012 5.694-5.694a2.944 2.944 0 0 0 0-4.164L10.841 0h1.594a1.57 1.57 0 0 1 1.11.46l6.931 6.931a1.57 1.57 0 0 1 0 2.221z" class="cls-1" data-name="Icon awesome-tags"/>
</svg>
