<svg xmlns="http://www.w3.org/2000/svg" width="14.147" height="20.845" viewBox="0 0 14.147 20.845">
    <defs>
        <style>
            .cls-1{fill:#d0cfec}
        </style>
    </defs>
    <path id="Icon_metro-pin" d="M20.083 18.127l-6.957-4.017a1.785 1.785 0 1 0-1.785 3.09l6.959 4.018a1.785 1.785 0 0 0 1.786-3.091zm-5.738-4.344l5.411 3.124 1.844-5.121-3.74-2.157-3.515 4.154zm-3.989 13.158l5.176-6.288-2.319-1.339zM23.833 8.954L19.2 6.276a1.339 1.339 0 0 0-1.339 2.319l4.638 2.678a1.339 1.339 0 1 0 1.338-2.319z" class="cls-1" data-name="Icon metro-pin" transform="translate(-10.356 -6.096)"/>
</svg>
