<svg xmlns="http://www.w3.org/2000/svg" width="36" height="33.882" viewBox="0 0 36 33.882"><path d="M34.927,19.059h-15.7L29.682,29.517a1.062,1.062,0,0,0,1.468.045A15.849,15.849,0,0,0,35.99,20.24,1.061,1.061,0,0,0,34.927,19.059ZM33.88,14.771A15.92,15.92,0,0,0,19.112,0,1.065,1.065,0,0,0,18,1.075V15.882H32.808A1.064,1.064,0,0,0,33.88,14.771ZM14.823,19.059V3.356a1.06,1.06,0,0,0-1.181-1.063A15.871,15.871,0,0,0,.009,18.554,16.078,16.078,0,0,0,16.083,33.881a15.759,15.759,0,0,0,8.951-2.914,1.051,1.051,0,0,0,.1-1.594Z" transform="translate(0 0)" fill="#ffc089"/></svg>