<svg xmlns="http://www.w3.org/2000/svg" width="31.585" height="29.307" viewBox="0 0 31.585 29.307"><path d="M-1.125,12.807A8.166,8.166,0,0,1,1.6,6.669a8.934,8.934,0,0,1,3.911-2.2,8.414,8.414,0,0,1,4.483.044,8.734,8.734,0,0,1,4.029,2.476,7.722,7.722,0,0,1,1.831,3.135,9.5,9.5,0,0,1,.439,3.384,9.252,9.252,0,0,1-.689,3,3.715,3.715,0,0,0-.088,2.726,10.155,10.155,0,0,0,1.172,2.593,22.717,22.717,0,0,0,1.48,2.006c.516.625.776.948.776.968l-.322-.265q-.294-.293-.63-.6t-.907-.747q-.571-.438-1.114-.791t-1.245-.732a5.941,5.941,0,0,0-1.318-.542,7.793,7.793,0,0,0-1.3-.22,2.392,2.392,0,0,0-1.245.205,8.419,8.419,0,0,1-3.033.587A9.163,9.163,0,0,1,4.4,21.057a7.716,7.716,0,0,1-3-2.022A8.789,8.789,0,0,1-1.125,12.807Zm3.868-.571a4.768,4.768,0,0,0,.982,3.648,4.737,4.737,0,0,0,3.267,1.889,4.726,4.726,0,0,0,3.633-.981A4.759,4.759,0,0,0,12.5,13.525a4.754,4.754,0,0,0-.967-3.633A4.706,4.706,0,0,0,8.28,8.016a4.8,4.8,0,0,0-3.648.967A4.687,4.687,0,0,0,2.743,12.236ZM16.748,3.621a4.523,4.523,0,0,1,2.169-2.564,4.023,4.023,0,0,1,3.31-.249,4.158,4.158,0,0,1,2.534,2.11,4.225,4.225,0,0,1,.249,3.4,4.963,4.963,0,0,1-3.339,3.047,4.7,4.7,0,0,0-1.626.982,6.289,6.289,0,0,0-1.011,1.113q-.293.455-.674,1.187a5.532,5.532,0,0,0-.7-4.659A4.761,4.761,0,0,1,16.748,3.621Zm1.113,14.5a6.5,6.5,0,0,1,1.846-4.541,5.946,5.946,0,0,1,4.454-1.846,6.231,6.231,0,0,1,6.3,6.387q0,3.225-3.223,5.713a6.881,6.881,0,0,0-1.817,2.079,8.511,8.511,0,0,0-.895,1.993q-.191.762-.365,1.963a17.029,17.029,0,0,0-.293-1.963,7.968,7.968,0,0,0-.879-2.036,7.006,7.006,0,0,0-1.9-2.154Q17.833,21.289,17.861,18.125ZM18.975,4.3a2.017,2.017,0,0,0,.015,1.6A2,2,0,0,0,20.117,7.02a2.02,2.02,0,0,0,1.582,0,1.956,1.956,0,0,0,1.114-1.113,2.1,2.1,0,0,0,0-1.611A1.959,1.959,0,0,0,21.7,3.182a2.064,2.064,0,0,0-1.6,0A1.953,1.953,0,0,0,18.975,4.3ZM20.923,19.37a3.434,3.434,0,0,0,1.919,1.919,3.363,3.363,0,0,0,2.7-.015,3.433,3.433,0,0,0,1.9-1.92,3.369,3.369,0,0,0,0-2.681,3.491,3.491,0,0,0-1.9-1.918,3.52,3.52,0,0,0-4.6,1.9A3.48,3.48,0,0,0,20.923,19.37Z" transform="translate(1.125 -0.567)" fill="#c8c8c8"/></svg>