<svg xmlns="http://www.w3.org/2000/svg" width="21" height="21" viewBox="0 0 21 21">
    <defs>
        <style>
            .cls-1{fill:#d0cfec}
        </style>
    </defs>
    <path id="Icon_awesome-user-circle" d="M10.5.563A10.5 10.5 0 1 0 21 11.062 10.5 10.5 0 0 0 10.5.563zm0 4.065a3.726 3.726 0 1 1-3.726 3.725A3.726 3.726 0 0 1 10.5 4.627zm0 14.565A8.113 8.113 0 0 1 4.3 16.3a4.721 4.721 0 0 1 4.17-2.532 1.036 1.036 0 0 1 .3.047 5.606 5.606 0 0 0 1.732.292 5.584 5.584 0 0 0 1.732-.292 1.036 1.036 0 0 1 .3-.047A4.721 4.721 0 0 1 16.7 16.3a8.113 8.113 0 0 1-6.2 2.892z" class="cls-1" data-name="Icon awesome-user-circle" transform="translate(0 -.563)"/>
</svg>
