<svg xmlns="http://www.w3.org/2000/svg" width="18.148" height="23.819" viewBox="0 0 18.148 23.819">
  <path id="Icon_material-lock-outline" data-name="Icon material-lock-outline" d="M15.074,19.648a2.268,2.268,0,1,0-2.268-2.268A2.275,2.275,0,0,0,15.074,19.648ZM21.879,9.44H20.745V7.171a5.671,5.671,0,0,0-11.342,0V9.44H8.268A2.275,2.275,0,0,0,6,11.708V23.051a2.275,2.275,0,0,0,2.268,2.268H21.879a2.275,2.275,0,0,0,2.268-2.268V11.708A2.275,2.275,0,0,0,21.879,9.44ZM11.558,7.171a3.516,3.516,0,1,1,7.032,0V9.44H11.558ZM21.879,23.051H8.268V11.708H21.879Z" transform="translate(-6 -1.5)" fill="#fff"/>
</svg>
