<svg xmlns="http://www.w3.org/2000/svg" width="19.488" height="14.616" viewBox="0 0 19.488 14.616">
  <path id="Icon_metro-profile" data-name="Icon metro-profile" d="M22.594,9.8H21.232V7.755l-2.813-.043L18.433,9.8H9.98l.058-2.088-2.755.043V9.843L5.891,9.8A1.392,1.392,0,0,0,4.5,11.192v9.744a1.392,1.392,0,0,0,1.392,1.392h16.7a1.392,1.392,0,0,0,1.392-1.392V11.192A1.392,1.392,0,0,0,22.594,9.8Zm-3.48-1.392h1.392v2.784H19.114Zm-9.048,4.741a1.812,1.812,0,0,1,1.523,2,1.812,1.812,0,0,1-1.523,2,1.812,1.812,0,0,1-1.523-2,1.812,1.812,0,0,1,1.523-2ZM7.979,8.408H9.371v2.784H7.979Zm-.928,11.1s.165-1.324.54-1.574a5.338,5.338,0,0,1,1.455-.416s.7.748,1,.748,1-.748,1-.748a5.321,5.321,0,0,1,1.455.416c.441.294.551,1.574.551,1.574h-6Zm14.151-.66H14.938v-.7H21.2Zm0-1.392H14.938v-.7H21.2Zm0-1.392H14.938v-.7H21.2Zm0-1.392H14.938v-.7H21.2Z" transform="translate(-4.499 -7.712)" fill="#4e58a9"/>
</svg>
