<svg xmlns="http://www.w3.org/2000/svg" width="19.333" height="14.5" viewBox="0 0 19.333 14.5">
  <path id="Icon_material-control-point-duplicate" data-name="Icon material-control-point-duplicate" d="M12.889,8.528H11.278v2.417H8.861v1.611h2.417v2.417h1.611V12.556h2.417V10.944H12.889ZM1.611,11.75a5.631,5.631,0,0,1,3.23-5.091V4.919a7.24,7.24,0,0,0,0,13.662v-1.74A5.631,5.631,0,0,1,1.611,11.75ZM12.083,4.5a7.25,7.25,0,1,0,7.25,7.25A7.261,7.261,0,0,0,12.083,4.5Zm0,12.889a5.639,5.639,0,1,1,5.639-5.639A5.645,5.645,0,0,1,12.083,17.389Z" transform="translate(0 -4.5)" fill="#4e58a9"/>
</svg>
