<svg xmlns="http://www.w3.org/2000/svg" width="20.25" height="18" viewBox="0 0 20.25 18">
  <path id="Icon_awesome-mail-bulk" data-name="Icon awesome-mail-bulk" d="M5.625,15.75a4.264,4.264,0,0,1-2.25-1.125C1.125,13.05.45,12.488,0,12.15v4.725A1.125,1.125,0,0,0,1.125,18h9a1.125,1.125,0,0,0,1.125-1.125V12.15c-.45.337-1.125.9-3.375,2.475A4.264,4.264,0,0,1,5.625,15.75ZM10.125,9h-9A1.125,1.125,0,0,0,0,10.125v.563c.9.675.788.675,4.05,3.038.338.225,1.012.9,1.575.9s1.238-.675,1.575-.788c3.262-2.363,3.15-2.363,4.05-3.038v-.675A1.125,1.125,0,0,0,10.125,9Zm9-3.375H7.875A1.125,1.125,0,0,0,6.75,6.75V7.875h3.375a2.253,2.253,0,0,1,2.24,2.033l.01-.008v4.725h6.75A1.125,1.125,0,0,0,20.25,13.5V6.75A1.125,1.125,0,0,0,19.125,5.625ZM18,10.125H15.75V7.875H18ZM5.625,6.75A2.253,2.253,0,0,1,7.875,4.5H15.75V1.125A1.125,1.125,0,0,0,14.625,0H3.375A1.125,1.125,0,0,0,2.25,1.125v6.75H5.625Z" fill="#d0cfec"/>
</svg>
