<svg xmlns="http://www.w3.org/2000/svg" width="17.556" height="19.507" viewBox="0 0 17.556 19.507">
  <path id="Icon_material-assignment" data-name="Icon material-assignment" d="M20.105,3.451H16.028a2.914,2.914,0,0,0-5.5,0H6.451A1.956,1.956,0,0,0,4.5,5.4V19.056a1.956,1.956,0,0,0,1.951,1.951H20.105a1.956,1.956,0,0,0,1.951-1.951V5.4A1.956,1.956,0,0,0,20.105,3.451Zm-6.827,0a.975.975,0,1,1-.975.975A.978.978,0,0,1,13.278,3.451Zm1.951,13.655H8.4V15.155h6.827Zm2.926-3.9H8.4V11.253h9.753Zm0-3.9H8.4V7.352h9.753Z" transform="translate(-4.5 -1.5)" fill="#d0cfec"/>
</svg>
