<svg xmlns="http://www.w3.org/2000/svg" width="19.51" height="19.51" viewBox="0 0 19.51 19.51">
  <path id="Icon_simple-processwire" data-name="Icon simple-processwire" d="M17.834,4.285A9.941,9.941,0,0,0,8.733.05,9.815,9.815,0,0,0,3.116,2.492,9.3,9.3,0,0,0,.325,6.822,9.381,9.381,0,0,0,.11,10.731a13.277,13.277,0,0,0,.684,2.381.777.777,0,0,0,.333.4,1.334,1.334,0,0,0,1.5-.518.137.137,0,0,0,.024-.119,11.154,11.154,0,0,1-.232-1.213,10.931,10.931,0,0,1-.085-2.527,7.364,7.364,0,0,1,.3-1.6A7.078,7.078,0,0,1,4.75,4.3a7.652,7.652,0,0,1,4.1-1.845,7.293,7.293,0,0,1,2.6.165,7.8,7.8,0,0,1,2.418,1.1A7.235,7.235,0,0,1,15.8,5.636a7.2,7.2,0,0,1,1.171,5.355,7.672,7.672,0,0,1-1.026,2.662,7.183,7.183,0,0,1-1.953,2.069A7.612,7.612,0,0,1,11.4,16.889a7.061,7.061,0,0,1-1.4.2,7.865,7.865,0,0,1-1.38-.067c-.586-.093-.708-.243-.842-.446a1.246,1.246,0,0,1-.119-.538c.009-3.581.007-2.625.007-4.484,0-.525-.017-1-.012-1.434a2.249,2.249,0,0,1,.592-1.726,1.974,1.974,0,0,1,1.445-.624,1.9,1.9,0,0,1,1.954,1.71,2.223,2.223,0,0,1-.782,1.923,2.832,2.832,0,0,1-.782.415,3.317,3.317,0,0,1-1.245.148.121.121,0,0,0-.128.1l-.134.7a.6.6,0,0,0,.333.79,4.114,4.114,0,0,0,1.6.2,4.01,4.01,0,0,0,2.481-1.094,3.635,3.635,0,0,0,1.1-2.15,4.778,4.778,0,0,0-.452-2.723A4.474,4.474,0,0,0,8.4,5.518l-.012,0A4.485,4.485,0,0,0,6.464,6.7,4.411,4.411,0,0,0,5.475,8.29,5.065,5.065,0,0,0,5.2,10.066c-.013.525.012,1.013.012,1.47v3.009c0,.962-.033,1.129,0,1.624a3.773,3.773,0,0,0,.207,1.1,3.142,3.142,0,0,0,.671,1.1,3.183,3.183,0,0,0,1.051.732,7.071,7.071,0,0,0,2.955.4,9.676,9.676,0,0,0,1.862-.255A9.93,9.93,0,0,0,15.4,17.687a9.574,9.574,0,0,0,2.61-2.758,9.969,9.969,0,0,0,1.356-3.53A9.614,9.614,0,0,0,17.8,4.254l.031.03Z" transform="translate(0.001 -0.001)" fill="#fff"/>
</svg>
