<svg xmlns="http://www.w3.org/2000/svg" width="11.393" height="11.393" viewBox="0 0 11.393 11.393">
    <defs>
        <style>
            .cls-1{fill:#4e58a9}
        </style>
    </defs>
    <path id="Icon_ionic-ios-checkbox" d="M14.943 4.5H5.449a.948.948 0 0 0-.949.949v9.494a.948.948 0 0 0 .949.949h9.494a.948.948 0 0 0 .949-.949V5.449a.948.948 0 0 0-.949-.949zm-1.557 3.99l-3.967 3.985a.536.536 0 0 1-.344.163.519.519 0 0 1-.347-.169l-1.665-1.661a.118.118 0 0 1 0-.169l.528-.528a.115.115 0 0 1 .166 0l1.317 1.317 3.62-3.646a.117.117 0 0 1 .083-.036.108.108 0 0 1 .083.036l.519.537a.117.117 0 0 1 .007.171z" class="cls-1" data-name="Icon ionic-ios-checkbox" transform="translate(-4.5 -4.5)"/>
</svg>
