<svg xmlns="http://www.w3.org/2000/svg" width="14.16" height="14.159" viewBox="0 0 14.16 14.159">
    <defs>
        <style>
            .cls-1{fill:#41e590}
        </style>
    </defs>
    <path id="Icon_ionic-ios-color-palette" d="M18 14.968a1.722 1.722 0 0 0-.907-.332 1.35 1.35 0 0 1-.833-.369 1.022 1.022 0 0 1 0-1.615l1.117-.992a3.59 3.59 0 0 0 0-5.5 7.089 7.089 0 0 0-4.714-1.66 8.914 8.914 0 0 0-5.856 2.216 6.46 6.46 0 0 0 0 9.9 8.633 8.633 0 0 0 5.638 2.043h.063a8.3 8.3 0 0 0 5.486-1.932A1.245 1.245 0 0 0 18 14.968zM6.564 10.1a1.18 1.18 0 1 1 1.18 1.18 1.179 1.179 0 0 1-1.18-1.18zm1.475 4.65a1.18 1.18 0 1 1 1.18-1.18 1.179 1.179 0 0 1-1.18 1.18zM10.4 8.814a1.18 1.18 0 1 1 1.18-1.18 1.179 1.179 0 0 1-1.18 1.18zm2.655 8.075a1.77 1.77 0 1 1 1.77-1.77 1.77 1.77 0 0 1-1.772 1.77zm.885-7.669a1.18 1.18 0 1 1 1.18-1.18 1.179 1.179 0 0 1-1.182 1.18z" class="cls-1" data-name="Icon ionic-ios-color-palette" transform="translate(-4.498 -4.5)"/>
</svg>
