<svg xmlns="http://www.w3.org/2000/svg" width="44" height="44" viewBox="0 0 44 44">
    <defs>
        <style>
            .cls-1{fill:#d0cfec}.cls-2{fill:#fff}
        </style>
    </defs>
    <g id="Group_10506" data-name="Group 10506" transform="translate(-1512 -253)">
        <rect id="Rectangle_149" width="44" height="44" class="cls-1" data-name="Rectangle 149" rx="12" transform="translate(1512 253)"/>
        <path id="Icon_simple-webcomponents-dot-org" d="M12.54 3.338l-.011.017H6l-6 10.41 6 10.408h13.687l.043.064 2.281-3.993.554-.955h-.009l.009-.015-.669-.8h.957l.006-.011.009.011 2.787-4.692-2.787-4.694v.005l-.012-.02h-1.01l.675-.817-2.791-4.884-.006.011-.024-.043h-7.16zM9.734 8.254h6.616l-.566.817h-.024l2.564 4.292h.935l-.3.351.382.465h-1.019l-2.564 4.292h.029l.559.817H9.7l-3.2-5.525 3.233-5.511z" class="cls-2" data-name="Icon simple-webcomponents-dot-org" transform="translate(1521.787 261.228)"/>
    </g>
</svg>
