<svg xmlns="http://www.w3.org/2000/svg" width="14.91" height="14.91" viewBox="0 0 14.91 14.91">
  <path id="Icon_material-leak-remove" data-name="Icon material-leak-remove" d="M10.3,4.5H8.642a3.8,3.8,0,0,1-.1.878L9.859,6.7A5.673,5.673,0,0,0,10.3,4.5ZM4.5,5.552,6.853,7.9A4.109,4.109,0,0,1,4.5,8.642V10.3A5.775,5.775,0,0,0,8.037,9.089l1.185,1.185A7.448,7.448,0,0,1,4.5,11.955v1.657a9.072,9.072,0,0,0,5.89-2.17l2.071,2.071a9.149,9.149,0,0,0-2.162,5.9h1.657A7.408,7.408,0,0,1,13.637,14.7l1.185,1.185a5.734,5.734,0,0,0-1.209,3.529h1.657a4.109,4.109,0,0,1,.737-2.353l2.353,2.353,1.052-1.052L5.552,4.5ZM13.612,4.5H11.955a7.438,7.438,0,0,1-.845,3.446L12.32,9.155A9.051,9.051,0,0,0,13.612,4.5Zm4.92,10.868a3.8,3.8,0,0,1,.878-.1V13.612a5.9,5.9,0,0,0-2.2.431Zm-3.777-3.777L15.964,12.8a7.438,7.438,0,0,1,3.446-.845V10.3A9.051,9.051,0,0,0,14.755,11.591Z" transform="translate(-4.5 -4.5)" fill="#4e58a9"/>
</svg>
