<svg xmlns="http://www.w3.org/2000/svg" width="27.98" height="22.384" viewBox="0 0 27.98 22.384">
  <path id="Icon_awesome-user-plus" data-name="Icon awesome-user-plus" d="M27.281,9.094h-2.8V6.3a.7.7,0,0,0-.7-.7h-1.4a.7.7,0,0,0-.7.7v2.8h-2.8a.7.7,0,0,0-.7.7v1.4a.7.7,0,0,0,.7.7h2.8v2.8a.7.7,0,0,0,.7.7h1.4a.7.7,0,0,0,.7-.7v-2.8h2.8a.7.7,0,0,0,.7-.7v-1.4A.7.7,0,0,0,27.281,9.094Zm-17.488,2.1A5.6,5.6,0,1,0,4.2,5.6,5.6,5.6,0,0,0,9.793,11.192Zm3.917,1.4h-.73a7.61,7.61,0,0,1-6.374,0h-.73A5.877,5.877,0,0,0,0,18.467v1.819a2.1,2.1,0,0,0,2.1,2.1H17.488a2.1,2.1,0,0,0,2.1-2.1V18.467A5.877,5.877,0,0,0,13.71,12.591Z" fill="#4e58a9"/>
</svg>
