<svg xmlns="http://www.w3.org/2000/svg" width="56" height="56" viewBox="0 0 56 56">
    <defs>
        <style>
            .cls-1,.cls-2{fill:#c8c8c8}.cls-2{stroke:#fff}.cls-3{fill:#fff}.cls-4{stroke:none}.cls-5{fill:none}.cls-6{filter:url(#Ellipse_40)}
        </style>
        <filter id="Ellipse_40" width="56" height="56" x="0" y="0" filterUnits="userSpaceOnUse">
            <feOffset dy="1"/>
            <feGaussianBlur result="blur" stdDeviation="3"/>
            <feFlood flood-opacity=".161"/>
            <feComposite in2="blur" operator="in"/>
            <feComposite in="SourceGraphic"/>
        </filter>
    </defs>
    <g id="Group_10428" data-name="Group 10428" transform="translate(9.522 8)">
        <g class="cls-6" transform="translate(-9.52 -8)">
            <circle id="Ellipse_40-2" cx="19" cy="19" r="19" class="cls-1" data-name="Ellipse 40" transform="translate(9 8)"/>
        </g>
        <g id="Ellipse_3386" class="cls-2" data-name="Ellipse 3386" transform="translate(1.478 2)">
            <circle cx="17" cy="17" r="17" class="cls-4"/>
            <circle cx="17" cy="17" r="16.5" class="cls-5"/>
        </g>
        <path id="Icon_material-lock-outline" d="M13 15.5a1.75 1.75 0 1 0-1.75-1.75A1.755 1.755 0 0 0 13 15.5zm5.25-7.875h-.875v-1.75a4.375 4.375 0 0 0-8.75 0v1.75H7.75A1.755 1.755 0 0 0 6 9.375v8.75a1.755 1.755 0 0 0 1.75 1.75h10.5a1.755 1.755 0 0 0 1.75-1.75v-8.75a1.755 1.755 0 0 0-1.75-1.75zm-7.963-1.75a2.713 2.713 0 1 1 5.425 0v1.75h-5.424zm7.963 12.25H7.75v-8.75h10.5z" class="cls-3" data-name="Icon material-lock-outline" transform="translate(5.537 7.738)"/>
    </g>
</svg>
