<svg xmlns="http://www.w3.org/2000/svg" width="17.183" height="11.896" viewBox="0 0 17.183 11.896">
  <g id="Group_11365" data-name="Group 11365" transform="translate(0 -0.404)">
    <path id="Subtraction_8" data-name="Subtraction 8" d="M14.183,11.9H3a3,3,0,0,1-3-3V7.931A1.985,1.985,0,0,0,1.983,5.948,1.985,1.985,0,0,0,0,3.965V3A3,3,0,0,1,3,0H14.183a3,3,0,0,1,3,3v.966a1.983,1.983,0,1,0,0,3.965V8.9A3,3,0,0,1,14.183,11.9Z" transform="translate(0 0.404)" fill="#d0cfec"/>
    <g id="Group_11259" data-name="Group 11259" transform="translate(2.761 3.278)">
      <g id="Rectangle_619" data-name="Rectangle 619" fill="#d0cfec" stroke="#fff" stroke-width="1">
        <rect width="11.211" height="6.406" rx="2" stroke="none"/>
        <rect x="0.5" y="0.5" width="10.211" height="5.406" rx="1.5" fill="none"/>
      </g>
      <g id="Group_11258" data-name="Group 11258" transform="translate(3.203 2.802)">
        <circle id="Ellipse_3379" data-name="Ellipse 3379" cx="0.4" cy="0.4" r="0.4" fill="#fff"/>
        <circle id="Ellipse_3380" data-name="Ellipse 3380" cx="0.4" cy="0.4" r="0.4" transform="translate(2.002)" fill="#fff"/>
        <circle id="Ellipse_3381" data-name="Ellipse 3381" cx="0.4" cy="0.4" r="0.4" transform="translate(4.004)" fill="#fff"/>
      </g>
    </g>
  </g>
</svg>
