<svg xmlns="http://www.w3.org/2000/svg" width="21.429" height="15" viewBox="0 0 21.429 15">
  <path id="Icon_material-keyboard" data-name="Icon material-keyboard" d="M22.286,7.5H5.143A2.14,2.14,0,0,0,3.011,9.643L3,20.357A2.149,2.149,0,0,0,5.143,22.5H22.286a2.149,2.149,0,0,0,2.143-2.143V9.643A2.149,2.149,0,0,0,22.286,7.5Zm-9.643,3.214h2.143v2.143H12.643Zm0,3.214h2.143v2.143H12.643ZM9.429,10.714h2.143v2.143H9.429Zm0,3.214h2.143v2.143H9.429ZM8.357,16.071H6.214V13.929H8.357Zm0-3.214H6.214V10.714H8.357ZM18,20.357H9.429V18.214H18Zm0-4.286H15.857V13.929H18Zm0-3.214H15.857V10.714H18Zm3.214,3.214H19.071V13.929h2.143Zm0-3.214H19.071V10.714h2.143Z" transform="translate(-3 -7.5)" fill="#4e58a9"/>
</svg>
