<svg xmlns="http://www.w3.org/2000/svg" width="24.083" height="22.096" viewBox="0 0 24.083 22.096">
  <path id="Icon_material-favorite-border" data-name="Icon material-favorite-border" d="M20.46,4.5a7.211,7.211,0,0,0-5.419,2.517A7.211,7.211,0,0,0,9.623,4.5,6.558,6.558,0,0,0,3,11.123c0,4.552,4.094,8.26,10.3,13.9L15.042,26.6l1.746-1.589c6.2-5.623,10.3-9.332,10.3-13.884A6.558,6.558,0,0,0,20.46,4.5Zm-5.3,18.725-.12.12-.12-.12c-5.732-5.19-9.513-8.622-9.513-12.1A4.115,4.115,0,0,1,9.623,6.908a4.708,4.708,0,0,1,4.3,2.842h2.252A4.678,4.678,0,0,1,20.46,6.908a4.115,4.115,0,0,1,4.215,4.215C24.675,14.6,20.894,18.035,15.162,23.225Z" transform="translate(-3 -4.5)" fill="rgba(78,88,169,0.5)"/>
</svg>
