<svg xmlns="http://www.w3.org/2000/svg" width="16.667" height="20" viewBox="0 0 16.667 20">
  <path id="Icon_material-contacts" data-name="Icon material-contacts" d="M18,0H4.667V1.667H18ZM4.667,20H18V18.333H4.667ZM18,3.333H4.667A1.672,1.672,0,0,0,3,5V15a1.672,1.672,0,0,0,1.667,1.667H18A1.672,1.672,0,0,0,19.667,15V5A1.672,1.672,0,0,0,18,3.333ZM11.333,5.625A1.875,1.875,0,1,1,9.458,7.5,1.878,1.878,0,0,1,11.333,5.625ZM15.5,14.167H7.167v-1.25c0-1.392,2.775-2.083,4.167-2.083s4.167.692,4.167,2.083Z" transform="translate(-3)" fill="rgba(78,88,169,0.5)"/>
</svg>
