<svg xmlns="http://www.w3.org/2000/svg" width="20" height="20" viewBox="0 0 20 20">
  <path id="Icon_awesome-layer-group" data-name="Icon awesome-layer-group" d="M.485,5.782l9.1,4.128a1,1,0,0,0,.832,0l9.1-4.128a.873.873,0,0,0,0-1.564L10.416.09a1,1,0,0,0-.832,0L.485,4.218a.873.873,0,0,0,0,1.564ZM19.515,9.23,17.246,8.2l-6.314,2.862a2.252,2.252,0,0,1-1.864,0L2.754,8.2.485,9.23a.872.872,0,0,0,0,1.562l9.1,4.125a1,1,0,0,0,.832,0l9.1-4.125a.872.872,0,0,0,0-1.562Zm0,4.992L17.254,13.2l-6.323,2.866a2.252,2.252,0,0,1-1.864,0L2.746,13.2.485,14.222a.872.872,0,0,0,0,1.562l9.1,4.125a1,1,0,0,0,.832,0l9.1-4.125a.872.872,0,0,0,0-1.562Z" transform="translate(0 0)" fill="rgba(78,88,169,0.5)"/>
</svg>
