<svg xmlns="http://www.w3.org/2000/svg" width="19.942" height="22.792" viewBox="0 0 19.942 22.792">
  <path id="Icon_metro-attachment" data-name="Icon metro-attachment" d="M17.642,9.207,16.2,7.762,8.967,14.99A3.067,3.067,0,0,0,13.3,19.327l8.675-8.674a5.111,5.111,0,0,0-7.229-7.228L5.643,12.533l-.019.019A7.129,7.129,0,0,0,15.706,22.632l.018-.019h0L21.942,16.4,20.5,14.952l-6.217,6.216-.019.019A5.084,5.084,0,0,1,7.068,14l.02-.019h0L16.2,4.871a3.067,3.067,0,1,1,4.338,4.337l-8.675,8.674a1.022,1.022,0,1,1-1.446-1.445l7.229-7.229Z" transform="translate(-3.535 -1.928)" fill="rgba(78,88,169,0.5)"/>
</svg>
