<svg xmlns="http://www.w3.org/2000/svg" width="16.349" height="15" viewBox="0 0 16.349 15">
  <path id="Icon_material-favorite-border" data-name="Icon material-favorite-border" d="M14.853,4.5a4.9,4.9,0,0,0-3.678,1.708A4.9,4.9,0,0,0,7.5,4.5,4.452,4.452,0,0,0,3,9c0,3.09,2.779,5.608,6.989,9.433L11.174,19.5l1.185-1.079C16.569,14.6,19.349,12.086,19.349,9A4.452,4.452,0,0,0,14.853,4.5Zm-3.6,12.711-.082.082-.082-.082C7.2,13.688,4.635,11.358,4.635,9A2.794,2.794,0,0,1,7.5,6.135a3.2,3.2,0,0,1,2.918,1.929h1.529a3.175,3.175,0,0,1,2.91-1.929A2.794,2.794,0,0,1,17.714,9C17.714,11.358,15.147,13.688,11.256,17.211Z" transform="translate(-3 -4.5)" fill="#4e58a9"/>
</svg>
