<svg xmlns="http://www.w3.org/2000/svg" width="48.925" height="45.92" viewBox="0 0 48.925 45.92">
    <defs>
        <style>
            .cls-1{fill:#275651}
        </style>
    </defs>
    <path id="Icon_awesome-ticket-alt" d="M9.054 11.29h22.633v13.58H9.054zm28.292 6.79a3.4 3.4 0 0 0 3.4 3.4v6.79a3.4 3.4 0 0 1-3.4 3.4H3.4a3.4 3.4 0 0 1-3.4-3.4v-6.79a3.4 3.4 0 0 0 3.4-3.4 3.4 3.4 0 0 0-3.4-3.4V7.9a3.4 3.4 0 0 1 3.4-3.4h33.946a3.4 3.4 0 0 1 3.4 3.4v6.79a3.4 3.4 0 0 0-3.4 3.39zm-3.4-7.356a1.7 1.7 0 0 0-1.7-1.7H8.488a1.7 1.7 0 0 0-1.7 1.7v14.712a1.7 1.7 0 0 0 1.7 1.7h23.765a1.7 1.7 0 0 0 1.7-1.7z" class="cls-1" data-name="Icon awesome-ticket-alt" transform="rotate(-36 29.916 14.216)"/>
</svg>
