<svg xmlns="http://www.w3.org/2000/svg" width="45" height="39.375" viewBox="0 0 45 39.375">
    <defs>
        <style>
            .cls-1{fill:#b9b26c}
        </style>
    </defs>
    <path id="Icon_awesome-sms" d="M22.5 2.25C10.072 2.25 0 10.433 0 20.531a16.226 16.226 0 0 0 5.01 11.488c-1.1 4.43-4.772 8.376-4.816 8.42a.7.7 0 0 0-.132.765.688.688 0 0 0 .642.422 20.1 20.1 0 0 0 12.357-4.518 26.8 26.8 0 0 0 9.439 1.705c12.428 0 22.5-8.183 22.5-18.281S34.928 2.25 22.5 2.25zM11.268 26.156H10.2a.705.705 0 0 1-.7-.7v-1.409a.705.705 0 0 1 .7-.7h1.081c.527 0 .914-.308.914-.58a.465.465 0 0 0-.185-.334l-1.925-1.652a3.249 3.249 0 0 1-1.169-2.47 3.573 3.573 0 0 1 3.727-3.393h1.072a.705.705 0 0 1 .7.7v1.406a.705.705 0 0 1-.7.7H12.63c-.527 0-.914.308-.914.58a.465.465 0 0 0 .185.334l1.925 1.652a3.249 3.249 0 0 1 1.169 2.47 3.568 3.568 0 0 1-3.727 3.396zm16.857-.7a.705.705 0 0 1-.7.7h-1.409a.705.705 0 0 1-.7-.7v-5.997l-2.18 4.9a.7.7 0 0 1-1.257 0l-2.188-4.9v5.994a.705.705 0 0 1-.7.7h-1.413a.705.705 0 0 1-.7-.7v-9.14a1.41 1.41 0 0 1 1.406-1.406h1.406a1.4 1.4 0 0 1 1.257.773l1.553 3.111 1.556-3.111a1.409 1.409 0 0 1 1.257-.773h1.406a1.41 1.41 0 0 1 1.406 1.406zm4.245.7h-1.081a.705.705 0 0 1-.7-.7v-1.409a.705.705 0 0 1 .7-.7h1.081c.527 0 .914-.308.914-.58a.465.465 0 0 0-.185-.334l-1.925-1.652a3.249 3.249 0 0 1-1.169-2.47 3.573 3.573 0 0 1 3.727-3.393H34.8a.705.705 0 0 1 .7.7v1.406a.705.705 0 0 1-.7.7h-1.076c-.527 0-.914.308-.914.58a.465.465 0 0 0 .185.334l1.925 1.652a3.249 3.249 0 0 1 1.169 2.47 3.56 3.56 0 0 1-3.719 3.396z" class="cls-1" data-name="Icon awesome-sms" transform="translate(0 -2.25)"/>
</svg>
