<svg xmlns="http://www.w3.org/2000/svg" width="56" height="56" viewBox="0 0 56 56">
    <defs>
        <style>
            .cls-1,.cls-2{fill:#ffc089}.cls-2{stroke:#fff}.cls-3{fill:#fff}.cls-4{stroke:none}.cls-5{fill:none}.cls-6{filter:url(#Ellipse_40)}
        </style>
        <filter id="Ellipse_40" width="56" height="56" x="0" y="0" filterUnits="userSpaceOnUse">
            <feOffset dy="1"/>
            <feGaussianBlur result="blur" stdDeviation="3"/>
            <feFlood flood-opacity=".161"/>
            <feComposite in2="blur" operator="in"/>
            <feComposite in="SourceGraphic"/>
        </filter>
    </defs>
    <g id="Group_10428" data-name="Group 10428" transform="translate(9.522 8)">
        <g class="cls-6" transform="translate(-9.52 -8)">
            <circle id="Ellipse_40-2" cx="19" cy="19" r="19" class="cls-1" data-name="Ellipse 40" transform="translate(9 8)"/>
        </g>
        <g id="Ellipse_3386" class="cls-2" data-name="Ellipse 3386" transform="translate(1.478 2)">
            <circle cx="17" cy="17" r="17" class="cls-4"/>
            <circle cx="17" cy="17" r="16.5" class="cls-5"/>
        </g>
        <g id="Icon_ionic-ios-people" data-name="Icon ionic-ios-people" transform="translate(5.92 4.493)">
            <path id="Path_918" d="M18.638 17.832c-.5-.18-1.325-.189-1.689-.328a2.386 2.386 0 0 1-.781-.364 4.829 4.829 0 0 1-.13-1.28 2.068 2.068 0 0 0 .445-.629A6.988 6.988 0 0 0 16.7 14s.3.126.413-.467c.1-.512.287-.781.238-1.159s-.26-.287-.26-.287a3.363 3.363 0 0 0 .26-1.68 2.688 2.688 0 0 0-2.9-2.654 2.7 2.7 0 0 0-2.909 2.647 3.413 3.413 0 0 0 .256 1.68s-.211-.09-.26.287.135.647.238 1.159c.117.6.413.467.413.467a7.056 7.056 0 0 0 .216 1.235 2.068 2.068 0 0 0 .445.629 4.829 4.829 0 0 1-.13 1.28 2.3 2.3 0 0 1-.781.359c-.359.139-1.181.157-1.689.337a3.17 3.17 0 0 0-2.057 3.018h12.5a3.163 3.163 0 0 0-2.055-3.019z" class="cls-3" data-name="Path 918" transform="translate(-2.159)"/>
            <path id="Path_919" d="M7.088 16.894a3.049 3.049 0 0 0 1.5-.418c-.7-1.055-.319-2.286-.463-3.436a1.9 1.9 0 0 0-2.1-1.832H6.01a1.9 1.9 0 0 0-2.079 1.832c-.144 1.145.256 2.515-.458 3.436a2.822 2.822 0 0 0 1.5.373 2.275 2.275 0 0 1-.045.755 1.134 1.134 0 0 1-.539.247 10.421 10.421 0 0 0-1.163.323 1.891 1.891 0 0 0-1.015 1.671h3.61a3.227 3.227 0 0 1 1.437-1.338 3.016 3.016 0 0 1 1.109-.234s.172-.273-.39-.373a3.829 3.829 0 0 1-.862-.3c-.085-.1-.027-.706-.027-.706z" class="cls-3" data-name="Path 919" transform="translate(0 -1.25)"/>
            <path id="Path_920" d="M25.308 16.894a3.049 3.049 0 0 1-1.5-.418c.7-1.055.319-2.286.463-3.436a1.9 1.9 0 0 1 2.1-1.832h.018a1.9 1.9 0 0 1 2.079 1.832c.144 1.145-.256 2.515.458 3.436a2.822 2.822 0 0 1-1.5.373 2.275 2.275 0 0 0 .045.755 1.134 1.134 0 0 0 .539.247 10.421 10.421 0 0 1 1.163.323 1.891 1.891 0 0 1 1.015 1.671h-3.614a3.227 3.227 0 0 0-1.437-1.338 3.016 3.016 0 0 0-1.109-.234s-.171-.269.391-.373a3.829 3.829 0 0 0 .862-.3c.085-.1.027-.706.027-.706z" class="cls-3" data-name="Path 920" transform="translate(-7.8 -1.25)"/>
        </g>
    </g>
</svg>
