<svg xmlns="http://www.w3.org/2000/svg" width="56" height="56" viewBox="0 0 56 56">
    <defs>
        <style>
            .cls-1,.cls-2{fill:#ffc089}.cls-2{stroke:#fff}.cls-3{fill:#fff}.cls-4{stroke:none}.cls-5{fill:none}.cls-6{filter:url(#Path_916)}
        </style>
        <filter id="Path_916" width="56" height="56" x="0" y="0" filterUnits="userSpaceOnUse">
            <feOffset dy="1"/>
            <feGaussianBlur result="blur" stdDeviation="3"/>
            <feFlood flood-opacity=".161"/>
            <feComposite in2="blur" operator="in"/>
            <feComposite in="SourceGraphic"/>
        </filter>
    </defs>
    <g id="Group_11394" data-name="Group 11394" transform="translate(9.39 8)">
        <g class="cls-6" transform="translate(-9.39 -8)">
            <path id="Path_916-2" d="M19 0A19 19 0 1 1 0 19 19 19 0 0 1 19 0z" class="cls-1" data-name="Path 916" transform="translate(9 8)"/>
        </g>
        <g id="Ellipse_3385" class="cls-2" data-name="Ellipse 3385" transform="translate(1.61 2)">
            <circle cx="17" cy="17" r="17" class="cls-4"/>
            <circle cx="17" cy="17" r="16.5" class="cls-5"/>
        </g>
        <path id="Icon_simple-processwire" d="M14.976 3.6A8.348 8.348 0 0 0 7.334.042a8.242 8.242 0 0 0-4.717 2.051A7.81 7.81 0 0 0 .272 5.73a7.878 7.878 0 0 0-.18 3.282 11.15 11.15 0 0 0 .574 2 .653.653 0 0 0 .28.337 1.12 1.12 0 0 0 1.254-.436.115.115 0 0 0 .02-.1 9.367 9.367 0 0 1-.19-1.018 9.179 9.179 0 0 1-.072-2.122 6.185 6.185 0 0 1 .256-1.344 5.944 5.944 0 0 1 1.775-2.718 6.426 6.426 0 0 1 3.445-1.55 6.124 6.124 0 0 1 2.183.139 6.552 6.552 0 0 1 2.031.92 6.076 6.076 0 0 1 1.621 1.613 6.044 6.044 0 0 1 .983 4.5 6.443 6.443 0 0 1-.862 2.236 6.032 6.032 0 0 1-1.64 1.731 6.392 6.392 0 0 1-2.174.979 5.93 5.93 0 0 1-1.18.164 6.6 6.6 0 0 1-1.158-.056c-.492-.079-.595-.2-.707-.375a1.047 1.047 0 0 1-.1-.452c.008-3.007.006-2.2.006-3.766 0-.441-.014-.841-.01-1.2a1.888 1.888 0 0 1 .5-1.449 1.658 1.658 0 0 1 1.213-.524 1.594 1.594 0 0 1 1.638 1.436 1.867 1.867 0 0 1-.657 1.615 2.379 2.379 0 0 1-.657.348 2.786 2.786 0 0 1-1.045.124.1.1 0 0 0-.108.081l-.111.585a.5.5 0 0 0 .28.664 3.455 3.455 0 0 0 1.346.164 3.368 3.368 0 0 0 2.084-.919 3.052 3.052 0 0 0 .928-1.806 4.012 4.012 0 0 0-.38-2.287 3.757 3.757 0 0 0-4.4-1.892h-.01a3.767 3.767 0 0 0-1.612.991A3.7 3.7 0 0 0 4.6 6.962a4.254 4.254 0 0 0-.233 1.492c-.011.441.01.851.01 1.234v2.527c0 .808-.027.948 0 1.364a3.168 3.168 0 0 0 .174.923 2.638 2.638 0 0 0 .564.923 2.673 2.673 0 0 0 .885.614 5.938 5.938 0 0 0 2.482.339 8.126 8.126 0 0 0 1.564-.214 8.339 8.339 0 0 0 2.891-1.309 8.04 8.04 0 0 0 2.192-2.316 8.372 8.372 0 0 0 1.139-2.965 8.074 8.074 0 0 0-1.312-6l.026.025z" class="cls-3" data-name="Icon simple-processwire" transform="translate(10.279 10.916)"/>
    </g>
</svg>
