<svg xmlns="http://www.w3.org/2000/svg" width="21.91" height="21.91" viewBox="0 0 21.91 21.91">
  <path id="Icon_awesome-exclamation-circle" data-name="Icon awesome-exclamation-circle" d="M22.472,11.518A10.955,10.955,0,1,1,11.518.563,10.954,10.954,0,0,1,22.472,11.518ZM11.518,13.726a2.032,2.032,0,1,0,2.032,2.032A2.032,2.032,0,0,0,11.518,13.726Zm-1.929-7.3.328,6.008a.53.53,0,0,0,.529.5H12.59a.53.53,0,0,0,.529-.5l.328-6.008a.53.53,0,0,0-.529-.559h-2.8A.53.53,0,0,0,9.588,6.422Z" transform="translate(-0.563 -0.563)" fill="#4e58a9"/>
</svg>
