<svg xmlns="http://www.w3.org/2000/svg" width="19.045" height="18.102" viewBox="0 0 19.045 18.102">
  <path id="Icon_ionic-md-star-outline" data-name="Icon ionic-md-star-outline" d="M22.842,11.4l-6.848-.588L13.319,4.5l-2.675,6.314L3.8,11.4l5.195,4.5L7.434,22.6l5.885-3.55L19.2,22.6l-1.557-6.7ZM14.1,17.76l-.779-.47-.779.47L9.712,19.466l.749-3.22.206-.886-.687-.6L7.481,12.6l3.292-.283.905-.078.355-.837,1.286-3.035L14.6,11.4l.355.837.905.078,3.293.283-2.5,2.166-.687.6.206.886.748,3.22Z" transform="translate(-3.797 -4.5)" fill="#d0cfec"/>
</svg>
