<svg xmlns="http://www.w3.org/2000/svg" width="13.974" height="15.971" viewBox="0 0 13.974 15.971">
  <path id="Icon_metro-attachment" data-name="Icon metro-attachment" d="M13.42,7.029,12.407,6.016,7.341,11.081a2.149,2.149,0,0,0,3.039,3.039L16.46,8.042a3.581,3.581,0,0,0-5.065-5.065L5.012,9.359,5,9.372a5,5,0,0,0,7.065,7.064l.013-.014h0l4.357-4.356-1.014-1.013L11.063,15.41l-.013.013a3.562,3.562,0,0,1-5.039-5.037l.014-.013h0L12.407,3.99a2.149,2.149,0,1,1,3.04,3.039L9.368,13.107a.716.716,0,1,1-1.013-1.013L13.42,7.029Z" transform="translate(-3.535 -1.928)" fill="#d0cfec"/>
</svg>
